M48
INCH,TZ
T1C0.0118
T2C0.0118
T3C0.0157
T4C0.0394
T5C0.0598
%
G90
G05
T1
X57768Y-33187
X57768Y-44044
X59160Y-31795
X59160Y-45436
X60217Y-40370
X60384Y-35136
X60552Y-30403
X60552Y-46828
X60635Y-40787
X61136Y-41121
X61665Y-41372
X61860Y-34496
X62033Y-42090
X62305Y-33215
X62506Y-34816
X62946Y-31795
X63335Y-37085
X63475Y-40008
X63892Y-36528
X64031Y-40564
X64449Y-35971
X64588Y-41121
X66314Y-36110
X66314Y-36667
X66314Y-37391
X66328Y-29220
X66328Y-28385
X66328Y-30055
X66328Y-30890
X66342Y-35526
X67094Y-27759
X67372Y-41121
X67372Y-28315
X67650Y-28872
X67929Y-40564
X67929Y-29429
X68486Y-40008
X68792Y-39868
X69154Y-39451
X69277Y-42474
X69321Y-29429
X69432Y-38894
X69711Y-38337
X69878Y-28872
X70232Y-30427
X70434Y-28315
X70921Y-27828
X71381Y-38337
X71381Y-38894
X71409Y-46828
X71492Y-39451
X71687Y-40035
X71965Y-40592
X72272Y-41121
X72801Y-45436
X72828Y-41678
X73664Y-38337
X73914Y-38866
X74130Y-24836
X74193Y-44044
X74193Y-39423
X74471Y-39980
X74523Y-34324
X74749Y-40537
X75028Y-41093
X75306Y-41650
X75429Y-24994
X75724Y-34579
X75724Y-36277
X76280Y-34161
X76280Y-36444
X76837Y-33883
X76837Y-36667
X77394Y-33744
X77394Y-36945
X77951Y-33605
X77951Y-37224
X78508Y-33466
X78508Y-37502
X79064Y-33326
X79064Y-37669
X79760Y-33340
X79760Y-36568
T2
X74659Y-28709
X74659Y-29133
X75084Y-28284
X75084Y-28709
X75084Y-29133
X75084Y-29558
X75508Y-28284
X75508Y-28709
X75508Y-29133
X75508Y-29558
X75933Y-28709
X75933Y-29133
T3
X66846Y-25545
X67752Y-29954
X74681Y-24167
X75075Y-36568
T4
X80153Y-37112
X80153Y-38112
X80153Y-39112
X80153Y-40112
T5
X54901Y-45452
X54901Y-31780
X56316Y-46866
X56316Y-30366
X57730Y-48280
X57730Y-28951
X59144Y-49694
X59144Y-27537
X63012Y-27906
X65012Y-27906
X72816Y-49694
X74230Y-48280
X75644Y-46866
X77059Y-45452
T0
M30
