G04 #@! TF.GenerationSoftware,KiCad,Pcbnew,(7.0.0)*
G04 #@! TF.CreationDate,2023-02-17T18:54:55+01:00*
G04 #@! TF.ProjectId,enorme-metapixel,656e6f72-6d65-42d6-9d65-746170697865,rev?*
G04 #@! TF.SameCoordinates,Original*
G04 #@! TF.FileFunction,Paste,Top*
G04 #@! TF.FilePolarity,Positive*
%FSLAX46Y46*%
G04 Gerber Fmt 4.6, Leading zero omitted, Abs format (unit mm)*
G04 Created by KiCad (PCBNEW (7.0.0)) date 2023-02-17 18:54:55*
%MOMM*%
%LPD*%
G01*
G04 APERTURE LIST*
G04 Aperture macros list*
%AMRoundRect*
0 Rectangle with rounded corners*
0 $1 Rounding radius*
0 $2 $3 $4 $5 $6 $7 $8 $9 X,Y pos of 4 corners*
0 Add a 4 corners polygon primitive as box body*
4,1,4,$2,$3,$4,$5,$6,$7,$8,$9,$2,$3,0*
0 Add four circle primitives for the rounded corners*
1,1,$1+$1,$2,$3*
1,1,$1+$1,$4,$5*
1,1,$1+$1,$6,$7*
1,1,$1+$1,$8,$9*
0 Add four rect primitives between the rounded corners*
20,1,$1+$1,$2,$3,$4,$5,0*
20,1,$1+$1,$4,$5,$6,$7,0*
20,1,$1+$1,$6,$7,$8,$9,0*
20,1,$1+$1,$8,$9,$2,$3,0*%
%AMRotRect*
0 Rectangle, with rotation*
0 The origin of the aperture is its center*
0 $1 length*
0 $2 width*
0 $3 Rotation angle, in degrees counterclockwise*
0 Add horizontal line*
21,1,$1,$2,0,0,$3*%
G04 Aperture macros list end*
%ADD10RoundRect,0.150000X-0.521491X0.309359X0.309359X-0.521491X0.521491X-0.309359X-0.309359X0.521491X0*%
%ADD11R,0.290000X0.290000*%
%ADD12RoundRect,0.200000X0.335876X0.053033X0.053033X0.335876X-0.335876X-0.053033X-0.053033X-0.335876X0*%
%ADD13RoundRect,0.200000X-0.053033X0.335876X-0.335876X0.053033X0.053033X-0.335876X0.335876X-0.053033X0*%
%ADD14RoundRect,0.200000X-0.335876X-0.053033X-0.053033X-0.335876X0.335876X0.053033X0.053033X0.335876X0*%
%ADD15RotRect,1.500000X0.900000X315.000000*%
%ADD16RotRect,1.500000X0.900000X45.000000*%
%ADD17RotRect,1.050000X1.050000X315.000000*%
%ADD18RoundRect,0.250000X-0.777817X-1.131371X1.131371X0.777817X0.777817X1.131371X-1.131371X-0.777817X0*%
%ADD19RoundRect,0.200000X0.053033X-0.335876X0.335876X-0.053033X-0.053033X0.335876X-0.335876X0.053033X0*%
%ADD20RoundRect,0.150000X0.309359X0.521491X-0.521491X-0.309359X-0.309359X-0.521491X0.521491X0.309359X0*%
%ADD21RoundRect,0.250000X0.777817X1.131371X-1.131371X-0.777817X-0.777817X-1.131371X1.131371X0.777817X0*%
%ADD22RoundRect,0.250000X-0.325000X-0.650000X0.325000X-0.650000X0.325000X0.650000X-0.325000X0.650000X0*%
%ADD23RoundRect,0.150000X0.521491X-0.309359X-0.309359X0.521491X-0.521491X0.309359X0.309359X-0.521491X0*%
%ADD24R,3.050000X2.750000*%
%ADD25R,2.200000X1.200000*%
%ADD26RoundRect,0.218750X0.335876X0.026517X0.026517X0.335876X-0.335876X-0.026517X-0.026517X-0.335876X0*%
%ADD27RoundRect,0.250000X-0.250000X-0.475000X0.250000X-0.475000X0.250000X0.475000X-0.250000X0.475000X0*%
G04 APERTURE END LIST*
D10*
G04 #@! TO.C,Q3*
X186734356Y-108814195D03*
X185390853Y-110157698D03*
X187388430Y-110811772D03*
G04 #@! TD*
D11*
G04 #@! TO.C,D3*
X158759158Y-106914131D03*
X158759158Y-106224131D03*
X159449158Y-106224131D03*
X159449158Y-106914131D03*
G04 #@! TD*
D12*
G04 #@! TO.C,R4*
X151202240Y-108566709D03*
X150035514Y-107399983D03*
G04 #@! TD*
D13*
G04 #@! TO.C,R11*
X189615816Y-91755244D03*
X188449090Y-92921970D03*
G04 #@! TD*
D12*
G04 #@! TO.C,R6*
X158273308Y-115637775D03*
X157106582Y-114471049D03*
G04 #@! TD*
G04 #@! TO.C,R28*
X161685098Y-92179508D03*
X160518372Y-91012782D03*
G04 #@! TD*
D14*
G04 #@! TO.C,R17*
X154702420Y-109804145D03*
X155869146Y-110970871D03*
G04 #@! TD*
D15*
G04 #@! TO.C,U2*
X190735886Y-62563033D03*
X189837860Y-63461058D03*
X188939834Y-64359084D03*
X188041809Y-65257110D03*
X187143783Y-66155135D03*
X186245758Y-67053161D03*
X185347732Y-67951186D03*
X184449706Y-68849212D03*
X183551681Y-69747238D03*
X182653655Y-70645263D03*
X181755629Y-71543289D03*
X180857604Y-72441314D03*
X179959578Y-73339340D03*
X179061553Y-74237366D03*
D16*
X180327274Y-77270854D03*
X181225299Y-78168879D03*
X182123325Y-79066905D03*
X183021351Y-79964931D03*
X183919376Y-80862956D03*
X184817402Y-81760982D03*
X185715427Y-82659007D03*
X186613453Y-83557033D03*
X187511479Y-84455059D03*
X188409504Y-85353084D03*
D15*
X191435921Y-86611734D03*
X192333947Y-85713709D03*
X193231973Y-84815683D03*
X194129998Y-83917658D03*
X195028024Y-83019632D03*
X195926049Y-82121606D03*
X196824075Y-81223581D03*
X197722101Y-80325555D03*
X198620126Y-79427529D03*
X199518152Y-78529504D03*
X200416177Y-77631478D03*
X201314203Y-76733453D03*
X202212229Y-75835427D03*
X203110254Y-74937401D03*
D17*
X191252074Y-71302873D03*
X190173736Y-72381210D03*
X189095398Y-73459548D03*
X192330411Y-72381210D03*
X191252074Y-73459548D03*
X190173736Y-74537886D03*
X193408749Y-73459548D03*
X192330411Y-74537886D03*
X191252074Y-75616224D03*
G04 #@! TD*
D13*
G04 #@! TO.C,R25*
X161808843Y-103864448D03*
X160642117Y-105031174D03*
G04 #@! TD*
G04 #@! TO.C,R20*
X155869146Y-85196829D03*
X154702420Y-86363555D03*
G04 #@! TD*
G04 #@! TO.C,R26*
X160394628Y-102450233D03*
X159227902Y-103616959D03*
G04 #@! TD*
D12*
G04 #@! TO.C,R5*
X154737774Y-112102241D03*
X153571048Y-110935515D03*
G04 #@! TD*
D18*
G04 #@! TO.C,SW2*
X180741625Y-92002731D03*
X185549951Y-87194405D03*
X183570053Y-94831159D03*
X188378379Y-90022833D03*
G04 #@! TD*
D14*
G04 #@! TO.C,R16*
X151166886Y-106268611D03*
X152333612Y-107435337D03*
G04 #@! TD*
D10*
G04 #@! TO.C,Q1*
X179663288Y-115885263D03*
X178319785Y-117228766D03*
X180317362Y-117882840D03*
G04 #@! TD*
D19*
G04 #@! TO.C,R9*
X150035514Y-88767718D03*
X151202240Y-87600992D03*
G04 #@! TD*
D20*
G04 #@! TO.C,Q4*
X149788028Y-110157698D03*
X148444525Y-108814195D03*
X147790451Y-110811772D03*
G04 #@! TD*
D21*
G04 #@! TO.C,SW1*
X178478884Y-80123338D03*
X173670558Y-84931664D03*
X175650456Y-77294910D03*
X170842130Y-82103236D03*
G04 #@! TD*
D19*
G04 #@! TO.C,R13*
X175774201Y-114506406D03*
X176940927Y-113339680D03*
G04 #@! TD*
D11*
G04 #@! TO.C,D4*
X158759158Y-89253568D03*
X159449158Y-89253568D03*
X159449158Y-89943568D03*
X158759158Y-89943568D03*
G04 #@! TD*
D13*
G04 #@! TO.C,R19*
X159404680Y-81661295D03*
X158237954Y-82828021D03*
G04 #@! TD*
G04 #@! TO.C,R3*
X185143365Y-107399982D03*
X183976639Y-108566708D03*
G04 #@! TD*
G04 #@! TO.C,R27*
X163223056Y-105278662D03*
X162056330Y-106445388D03*
G04 #@! TD*
D14*
G04 #@! TO.C,R23*
X171955825Y-105278662D03*
X173122551Y-106445388D03*
G04 #@! TD*
D19*
G04 #@! TO.C,R8*
X153571048Y-85232184D03*
X154737774Y-84065458D03*
G04 #@! TD*
D22*
G04 #@! TO.C,C1*
X172614441Y-69583851D03*
X175564441Y-69583851D03*
G04 #@! TD*
D19*
G04 #@! TO.C,R14*
X179309736Y-110970871D03*
X180476462Y-109804145D03*
G04 #@! TD*
D14*
G04 #@! TO.C,R24*
X174784252Y-102450235D03*
X175950978Y-103616961D03*
G04 #@! TD*
D19*
G04 #@! TO.C,R7*
X157106582Y-81696650D03*
X158273308Y-80529924D03*
G04 #@! TD*
D12*
G04 #@! TO.C,R12*
X177789455Y-89050560D03*
X176622729Y-87883834D03*
G04 #@! TD*
D23*
G04 #@! TO.C,Q7*
X155515592Y-80282437D03*
X156859095Y-78938934D03*
X154861518Y-78284860D03*
G04 #@! TD*
D24*
G04 #@! TO.C,U1*
X174414439Y-63058849D03*
X174414439Y-66108849D03*
X177764439Y-63058849D03*
X177764439Y-66108849D03*
D25*
X169789439Y-62303849D03*
X169789439Y-66863849D03*
G04 #@! TD*
D12*
G04 #@! TO.C,R29*
X163099311Y-90765295D03*
X161932585Y-89598569D03*
G04 #@! TD*
D20*
G04 #@! TO.C,Q6*
X156859095Y-117228765D03*
X155515592Y-115885262D03*
X154861518Y-117882839D03*
G04 #@! TD*
D23*
G04 #@! TO.C,Q9*
X148444524Y-87353505D03*
X149788027Y-86010002D03*
X147790450Y-85355928D03*
G04 #@! TD*
D12*
G04 #@! TO.C,R30*
X160270885Y-93593721D03*
X159104159Y-92426995D03*
G04 #@! TD*
D14*
G04 #@! TO.C,R18*
X158237954Y-113339680D03*
X159404680Y-114506406D03*
G04 #@! TD*
D19*
G04 #@! TO.C,R15*
X182845268Y-107435337D03*
X184011994Y-106268611D03*
G04 #@! TD*
D23*
G04 #@! TO.C,Q8*
X151980058Y-83817971D03*
X153323561Y-82474468D03*
X151325984Y-81820394D03*
G04 #@! TD*
D11*
G04 #@! TO.C,D2*
X176419722Y-106914131D03*
X175729722Y-106914131D03*
X175729722Y-106224131D03*
X176419722Y-106224131D03*
G04 #@! TD*
D13*
G04 #@! TO.C,R2*
X181607832Y-110935515D03*
X180441106Y-112102241D03*
G04 #@! TD*
G04 #@! TO.C,R10*
X173900368Y-76075151D03*
X172733642Y-77241877D03*
G04 #@! TD*
G04 #@! TO.C,R1*
X178072298Y-114471049D03*
X176905572Y-115637775D03*
G04 #@! TD*
D14*
G04 #@! TO.C,R22*
X173370037Y-103864448D03*
X174536763Y-105031174D03*
G04 #@! TD*
D13*
G04 #@! TO.C,R21*
X152333611Y-88732364D03*
X151166885Y-89899090D03*
G04 #@! TD*
D10*
G04 #@! TO.C,Q2*
X183198822Y-112349729D03*
X181855319Y-113693232D03*
X183852896Y-114347306D03*
G04 #@! TD*
D26*
G04 #@! TO.C,D1*
X176631569Y-90155416D03*
X175517875Y-89041722D03*
G04 #@! TD*
D20*
G04 #@! TO.C,Q5*
X153323561Y-113693231D03*
X151980058Y-112349728D03*
X151325984Y-114347305D03*
G04 #@! TD*
D27*
G04 #@! TO.C,C2*
X186336959Y-61738562D03*
X188236959Y-61738562D03*
G04 #@! TD*
M02*
