G04 #@! TF.GenerationSoftware,KiCad,Pcbnew,(7.0.0)*
G04 #@! TF.CreationDate,2023-02-17T18:54:55+01:00*
G04 #@! TF.ProjectId,enorme-metapixel,656e6f72-6d65-42d6-9d65-746170697865,rev?*
G04 #@! TF.SameCoordinates,Original*
G04 #@! TF.FileFunction,Soldermask,Top*
G04 #@! TF.FilePolarity,Negative*
%FSLAX46Y46*%
G04 Gerber Fmt 4.6, Leading zero omitted, Abs format (unit mm)*
G04 Created by KiCad (PCBNEW (7.0.0)) date 2023-02-17 18:54:55*
%MOMM*%
%LPD*%
G01*
G04 APERTURE LIST*
G04 Aperture macros list*
%AMRoundRect*
0 Rectangle with rounded corners*
0 $1 Rounding radius*
0 $2 $3 $4 $5 $6 $7 $8 $9 X,Y pos of 4 corners*
0 Add a 4 corners polygon primitive as box body*
4,1,4,$2,$3,$4,$5,$6,$7,$8,$9,$2,$3,0*
0 Add four circle primitives for the rounded corners*
1,1,$1+$1,$2,$3*
1,1,$1+$1,$4,$5*
1,1,$1+$1,$6,$7*
1,1,$1+$1,$8,$9*
0 Add four rect primitives between the rounded corners*
20,1,$1+$1,$2,$3,$4,$5,0*
20,1,$1+$1,$4,$5,$6,$7,0*
20,1,$1+$1,$6,$7,$8,$9,0*
20,1,$1+$1,$8,$9,$2,$3,0*%
%AMRotRect*
0 Rectangle, with rotation*
0 The origin of the aperture is its center*
0 $1 length*
0 $2 width*
0 $3 Rotation angle, in degrees counterclockwise*
0 Add horizontal line*
21,1,$1,$2,0,0,$3*%
G04 Aperture macros list end*
%ADD10C,0.200000*%
%ADD11RoundRect,0.150000X-0.521491X0.309359X0.309359X-0.521491X0.521491X-0.309359X-0.309359X0.521491X0*%
%ADD12R,0.290000X0.290000*%
%ADD13RoundRect,0.200000X0.335876X0.053033X0.053033X0.335876X-0.335876X-0.053033X-0.053033X-0.335876X0*%
%ADD14R,1.700000X1.700000*%
%ADD15O,1.700000X1.700000*%
%ADD16RoundRect,0.200000X-0.053033X0.335876X-0.335876X0.053033X0.053033X-0.335876X0.335876X-0.053033X0*%
%ADD17C,4.300000*%
%ADD18RoundRect,0.200000X-0.335876X-0.053033X-0.053033X-0.335876X0.335876X0.053033X0.053033X0.335876X0*%
%ADD19RotRect,1.500000X0.900000X315.000000*%
%ADD20RotRect,1.500000X0.900000X45.000000*%
%ADD21C,0.475000*%
%ADD22RotRect,4.200000X4.200000X315.000000*%
%ADD23RotRect,3.000000X3.000000X315.000000*%
%ADD24C,3.000000*%
%ADD25RotRect,3.000000X3.000000X45.000000*%
%ADD26RoundRect,0.250000X-0.777817X-1.131371X1.131371X0.777817X0.777817X1.131371X-1.131371X-0.777817X0*%
%ADD27RoundRect,0.200000X0.053033X-0.335876X0.335876X-0.053033X-0.053033X0.335876X-0.335876X0.053033X0*%
%ADD28R,3.000000X3.000000*%
%ADD29RoundRect,0.150000X0.309359X0.521491X-0.521491X-0.309359X-0.309359X-0.521491X0.521491X0.309359X0*%
%ADD30RoundRect,0.250000X0.777817X1.131371X-1.131371X-0.777817X-0.777817X-1.131371X1.131371X0.777817X0*%
%ADD31C,3.200000*%
%ADD32RoundRect,0.250000X-0.325000X-0.650000X0.325000X-0.650000X0.325000X0.650000X-0.325000X0.650000X0*%
%ADD33RoundRect,0.150000X0.521491X-0.309359X-0.309359X0.521491X-0.521491X0.309359X0.309359X-0.521491X0*%
%ADD34R,2.200000X1.200000*%
%ADD35R,6.400000X5.800000*%
%ADD36RotRect,3.000000X3.000000X225.000000*%
%ADD37RoundRect,0.218750X0.335876X0.026517X0.026517X0.335876X-0.335876X-0.026517X-0.026517X-0.335876X0*%
%ADD38RoundRect,0.250000X-0.250000X-0.475000X0.250000X-0.475000X0.250000X0.475000X-0.250000X0.475000X0*%
G04 APERTURE END LIST*
D10*
G36*
X157226217Y-125963856D02*
G01*
X157205893Y-125968701D01*
X157185984Y-125975257D01*
X157166674Y-125983511D01*
X157148147Y-125993446D01*
X157130586Y-126005050D01*
X157114174Y-126018307D01*
X157099095Y-126033203D01*
X157085533Y-126049723D01*
X157073671Y-126067854D01*
X157063693Y-126087580D01*
X157058178Y-126101609D01*
X157049681Y-126123344D01*
X157043581Y-126145659D01*
X157040107Y-126168515D01*
X157039493Y-126191872D01*
X157041333Y-126211693D01*
X157043523Y-126223731D01*
X157045966Y-128039921D01*
X157047309Y-128066841D01*
X157051215Y-128092092D01*
X157057500Y-128115665D01*
X157065978Y-128137549D01*
X157076466Y-128157736D01*
X157088779Y-128176217D01*
X157102731Y-128192981D01*
X157118140Y-128208021D01*
X157134818Y-128221326D01*
X157152584Y-128232887D01*
X157171250Y-128242695D01*
X157190634Y-128250740D01*
X157210550Y-128257014D01*
X157230814Y-128261507D01*
X157251241Y-128264210D01*
X157271646Y-128265113D01*
X157292535Y-128264210D01*
X157313320Y-128261507D01*
X157333831Y-128257014D01*
X157353895Y-128250740D01*
X157373341Y-128242695D01*
X157391997Y-128232887D01*
X157409691Y-128221326D01*
X157426252Y-128208021D01*
X157441508Y-128192981D01*
X157455286Y-128176217D01*
X157467416Y-128157736D01*
X157477726Y-128137549D01*
X157486044Y-128115665D01*
X157492197Y-128092092D01*
X157496016Y-128066841D01*
X157497327Y-128039921D01*
X157494396Y-126916892D01*
X157768436Y-127312077D01*
X157783130Y-127331709D01*
X157798815Y-127349140D01*
X157815348Y-127364413D01*
X157832587Y-127377567D01*
X157850390Y-127388645D01*
X157868613Y-127397687D01*
X157887116Y-127404734D01*
X157911972Y-127411098D01*
X157936733Y-127414086D01*
X157955038Y-127414171D01*
X157979504Y-127413651D01*
X158004314Y-127409828D01*
X158029123Y-127402604D01*
X158047524Y-127394897D01*
X158065587Y-127385181D01*
X158083166Y-127373415D01*
X158100118Y-127359559D01*
X158116297Y-127343572D01*
X158131558Y-127325411D01*
X158141151Y-127312077D01*
X158412749Y-126916892D01*
X158412749Y-128039921D01*
X158414086Y-128066841D01*
X158417978Y-128092092D01*
X158424241Y-128115665D01*
X158432693Y-128137549D01*
X158443151Y-128157736D01*
X158455433Y-128176217D01*
X158469357Y-128192981D01*
X158484739Y-128208021D01*
X158501399Y-128221326D01*
X158519152Y-128232887D01*
X158537817Y-128242695D01*
X158557211Y-128250740D01*
X158577151Y-128257014D01*
X158597456Y-128261507D01*
X158617943Y-128264210D01*
X158638429Y-128265113D01*
X158659237Y-128264210D01*
X158679963Y-128261507D01*
X158700432Y-128257014D01*
X158720472Y-128250740D01*
X158739907Y-128242695D01*
X158758565Y-128232887D01*
X158776271Y-128221326D01*
X158792852Y-128208021D01*
X158808133Y-128192981D01*
X158821940Y-128176217D01*
X158834101Y-128157736D01*
X158844440Y-128137549D01*
X158852785Y-128115665D01*
X158858960Y-128092092D01*
X158862793Y-128066841D01*
X158864110Y-128039921D01*
X158864110Y-126223731D01*
X158866944Y-126203535D01*
X158867721Y-126183353D01*
X158866530Y-126163341D01*
X158863461Y-126143655D01*
X158858603Y-126124453D01*
X158852045Y-126105890D01*
X158848966Y-126098679D01*
X158840348Y-126078534D01*
X158829739Y-126059879D01*
X158817336Y-126042735D01*
X158803337Y-126027126D01*
X158787941Y-126013072D01*
X158771345Y-126000594D01*
X158753748Y-125989716D01*
X158735348Y-125980457D01*
X158716342Y-125972841D01*
X158696929Y-125966889D01*
X158683858Y-125963856D01*
X158661265Y-125959649D01*
X158638092Y-125958018D01*
X158614620Y-125958962D01*
X158591127Y-125962483D01*
X158567894Y-125968579D01*
X158545200Y-125977252D01*
X158536336Y-125981442D01*
X158515846Y-125992524D01*
X158496299Y-126006389D01*
X158481586Y-126019333D01*
X158467901Y-126033799D01*
X158455432Y-126049674D01*
X158444369Y-126066843D01*
X158434900Y-126085190D01*
X158430823Y-126094771D01*
X157955038Y-126796725D01*
X157479253Y-126094771D01*
X157470633Y-126075863D01*
X157460301Y-126058363D01*
X157448469Y-126042306D01*
X157435350Y-126027726D01*
X157417462Y-126011630D01*
X157398306Y-125997962D01*
X157378296Y-125986790D01*
X157374228Y-125984861D01*
X157356208Y-125975764D01*
X157337775Y-125968596D01*
X157314364Y-125962288D01*
X157290792Y-125958853D01*
X157267327Y-125958214D01*
X157244238Y-125960291D01*
X157226217Y-125963856D01*
G37*
G36*
X159796737Y-126507515D02*
G01*
X159832499Y-126510333D01*
X159867267Y-126514970D01*
X159901028Y-126521375D01*
X159933771Y-126529499D01*
X159965483Y-126539292D01*
X159996152Y-126550704D01*
X160025767Y-126563686D01*
X160054314Y-126578188D01*
X160081783Y-126594160D01*
X160108160Y-126611552D01*
X160133435Y-126630315D01*
X160157594Y-126650399D01*
X160180626Y-126671754D01*
X160202519Y-126694330D01*
X160223260Y-126718078D01*
X160242838Y-126742949D01*
X160261240Y-126768891D01*
X160278454Y-126795856D01*
X160294469Y-126823794D01*
X160309272Y-126852654D01*
X160322851Y-126882388D01*
X160335194Y-126912946D01*
X160346290Y-126944278D01*
X160356125Y-126976334D01*
X160364688Y-127009064D01*
X160371966Y-127042419D01*
X160377949Y-127076348D01*
X160382623Y-127110803D01*
X160385976Y-127145734D01*
X160387997Y-127181090D01*
X160388673Y-127216822D01*
X160388607Y-127229169D01*
X160388107Y-127253543D01*
X160387195Y-127277012D01*
X160385962Y-127299005D01*
X160384110Y-127323546D01*
X160382079Y-127343768D01*
X160378904Y-127364345D01*
X160391446Y-127360148D01*
X160411632Y-127355674D01*
X160433949Y-127352124D01*
X160454783Y-127350014D01*
X160476601Y-127349202D01*
X160499742Y-127350356D01*
X160522836Y-127353787D01*
X160545628Y-127359448D01*
X160567864Y-127367291D01*
X160589289Y-127377270D01*
X160609651Y-127389336D01*
X160628695Y-127403443D01*
X160646166Y-127419544D01*
X160661812Y-127437591D01*
X160675377Y-127457537D01*
X160686609Y-127479335D01*
X160695252Y-127502938D01*
X160701052Y-127528298D01*
X160703757Y-127555368D01*
X160703112Y-127584101D01*
X160698862Y-127614450D01*
X160690793Y-127651515D01*
X160681441Y-127687686D01*
X160670831Y-127722945D01*
X160658987Y-127757272D01*
X160645935Y-127790649D01*
X160631699Y-127823057D01*
X160616304Y-127854479D01*
X160599776Y-127884895D01*
X160582138Y-127914287D01*
X160563416Y-127942637D01*
X160543634Y-127969926D01*
X160522818Y-127996135D01*
X160500992Y-128021247D01*
X160478182Y-128045241D01*
X160454412Y-128068101D01*
X160429706Y-128089807D01*
X160404091Y-128110341D01*
X160377590Y-128129685D01*
X160350228Y-128147819D01*
X160322031Y-128164726D01*
X160293024Y-128180387D01*
X160263230Y-128194782D01*
X160232676Y-128207895D01*
X160201385Y-128219706D01*
X160169383Y-128230197D01*
X160136695Y-128239349D01*
X160103345Y-128247144D01*
X160069358Y-128253564D01*
X160034760Y-128258588D01*
X159999575Y-128262201D01*
X159963827Y-128264382D01*
X159927543Y-128265113D01*
X159925100Y-128265113D01*
X159880789Y-128264049D01*
X159837451Y-128260883D01*
X159795115Y-128255653D01*
X159753808Y-128248400D01*
X159713560Y-128239161D01*
X159674398Y-128227976D01*
X159636351Y-128214884D01*
X159599448Y-128199923D01*
X159563718Y-128183132D01*
X159529187Y-128164550D01*
X159495886Y-128144217D01*
X159463842Y-128122170D01*
X159433084Y-128098450D01*
X159403640Y-128073094D01*
X159375539Y-128046143D01*
X159348809Y-128017634D01*
X159323479Y-127987606D01*
X159299577Y-127956099D01*
X159277131Y-127923151D01*
X159256171Y-127888802D01*
X159236724Y-127853090D01*
X159218818Y-127816054D01*
X159202483Y-127777733D01*
X159187747Y-127738166D01*
X159174637Y-127697392D01*
X159163184Y-127655450D01*
X159153414Y-127612378D01*
X159145357Y-127568216D01*
X159139041Y-127523003D01*
X159134494Y-127476776D01*
X159131745Y-127429577D01*
X159130823Y-127381442D01*
X159130823Y-127219265D01*
X159130868Y-127216822D01*
X159576810Y-127216822D01*
X159577083Y-127236541D01*
X159579214Y-127273175D01*
X159583335Y-127306211D01*
X159589301Y-127335812D01*
X159596966Y-127362146D01*
X159606183Y-127385377D01*
X159616807Y-127405670D01*
X159628692Y-127423190D01*
X159641692Y-127438103D01*
X159662963Y-127455947D01*
X159685921Y-127468853D01*
X159710074Y-127477382D01*
X159734928Y-127482090D01*
X159759992Y-127483535D01*
X159785508Y-127482090D01*
X159810636Y-127477382D01*
X159834915Y-127468853D01*
X159857880Y-127455947D01*
X159879068Y-127438103D01*
X159891976Y-127423190D01*
X159903752Y-127405670D01*
X159914256Y-127385377D01*
X159923352Y-127362146D01*
X159930903Y-127335812D01*
X159936770Y-127306211D01*
X159940817Y-127273175D01*
X159942907Y-127236541D01*
X159943174Y-127216822D01*
X159942907Y-127197066D01*
X159940817Y-127160405D01*
X159936770Y-127127399D01*
X159930903Y-127097876D01*
X159923352Y-127071662D01*
X159914256Y-127048585D01*
X159903752Y-127028471D01*
X159891976Y-127011146D01*
X159879068Y-126996439D01*
X159857880Y-126978905D01*
X159834915Y-126966285D01*
X159810636Y-126957994D01*
X159785508Y-126953448D01*
X159759992Y-126952063D01*
X159734027Y-126953636D01*
X159710467Y-126958210D01*
X159689214Y-126965571D01*
X159670164Y-126975503D01*
X159653219Y-126987790D01*
X159638276Y-127002218D01*
X159625236Y-127018570D01*
X159613996Y-127036632D01*
X159604457Y-127056188D01*
X159596517Y-127077023D01*
X159590075Y-127098921D01*
X159585030Y-127121667D01*
X159581283Y-127145045D01*
X159578731Y-127168841D01*
X159577273Y-127192838D01*
X159576810Y-127216822D01*
X159130868Y-127216822D01*
X159131491Y-127183311D01*
X159133488Y-127147746D01*
X159136804Y-127112621D01*
X159141428Y-127077985D01*
X159147351Y-127043886D01*
X159154561Y-127010374D01*
X159163048Y-126977498D01*
X159172802Y-126945308D01*
X159183813Y-126913853D01*
X159196069Y-126883182D01*
X159209562Y-126853345D01*
X159224280Y-126824390D01*
X159240213Y-126796367D01*
X159257351Y-126769326D01*
X159275682Y-126743315D01*
X159295198Y-126718384D01*
X159315887Y-126694582D01*
X159337740Y-126671958D01*
X159360745Y-126650563D01*
X159384893Y-126630444D01*
X159410172Y-126611651D01*
X159436573Y-126594235D01*
X159464086Y-126578242D01*
X159492699Y-126563725D01*
X159522403Y-126550730D01*
X159553187Y-126539308D01*
X159585041Y-126529508D01*
X159617954Y-126521380D01*
X159651916Y-126514972D01*
X159686916Y-126510334D01*
X159722945Y-126507515D01*
X159759992Y-126506564D01*
X159796737Y-126507515D01*
G37*
G36*
X160857131Y-126983326D02*
G01*
X161068157Y-126983326D01*
X161068157Y-127519195D01*
X161068892Y-127557995D01*
X161071090Y-127596238D01*
X161074739Y-127633881D01*
X161079829Y-127670878D01*
X161086348Y-127707186D01*
X161094284Y-127742760D01*
X161103627Y-127777557D01*
X161114365Y-127811531D01*
X161126486Y-127844638D01*
X161139981Y-127876835D01*
X161154837Y-127908076D01*
X161171042Y-127938319D01*
X161188587Y-127967517D01*
X161207459Y-127995628D01*
X161227648Y-128022606D01*
X161249141Y-128048408D01*
X161271928Y-128072989D01*
X161295998Y-128096306D01*
X161321338Y-128118313D01*
X161347939Y-128138966D01*
X161375788Y-128158221D01*
X161404875Y-128176035D01*
X161435188Y-128192362D01*
X161466716Y-128207158D01*
X161499447Y-128220380D01*
X161533370Y-128231982D01*
X161568475Y-128241921D01*
X161604749Y-128250152D01*
X161642182Y-128256631D01*
X161680762Y-128261313D01*
X161720478Y-128264155D01*
X161761318Y-128265113D01*
X161787937Y-128263835D01*
X161812838Y-128260109D01*
X161836022Y-128254100D01*
X161857489Y-128245970D01*
X161877238Y-128235882D01*
X161895270Y-128224000D01*
X161911585Y-128210486D01*
X161926182Y-128195503D01*
X161939062Y-128179216D01*
X161950225Y-128161786D01*
X161959670Y-128143378D01*
X161967398Y-128124154D01*
X161973409Y-128104277D01*
X161977702Y-128083911D01*
X161980278Y-128063219D01*
X161981137Y-128042363D01*
X161980278Y-128021508D01*
X161977702Y-128000815D01*
X161973409Y-127980449D01*
X161967398Y-127960572D01*
X161959670Y-127941348D01*
X161950225Y-127922940D01*
X161939062Y-127905510D01*
X161926182Y-127889223D01*
X161911585Y-127874241D01*
X161895270Y-127860727D01*
X161877238Y-127848844D01*
X161857489Y-127838756D01*
X161836022Y-127830626D01*
X161812838Y-127824617D01*
X161787937Y-127820892D01*
X161761318Y-127819614D01*
X161728591Y-127818299D01*
X161698504Y-127814406D01*
X161670984Y-127808015D01*
X161645959Y-127799204D01*
X161623356Y-127788052D01*
X161603100Y-127774637D01*
X161585121Y-127759038D01*
X161569343Y-127741334D01*
X161555696Y-127721603D01*
X161544104Y-127699925D01*
X161534496Y-127676378D01*
X161526799Y-127651040D01*
X161520940Y-127623991D01*
X161516844Y-127595309D01*
X161514441Y-127565073D01*
X161513656Y-127533361D01*
X161513656Y-126983326D01*
X161800397Y-126983326D01*
X161828524Y-126982048D01*
X161854836Y-126978323D01*
X161879334Y-126972314D01*
X161902017Y-126964184D01*
X161922886Y-126954096D01*
X161941940Y-126942213D01*
X161959179Y-126928699D01*
X161974603Y-126913717D01*
X161988213Y-126897429D01*
X162000008Y-126880000D01*
X162009989Y-126861592D01*
X162018155Y-126842367D01*
X162024506Y-126822491D01*
X162029043Y-126802125D01*
X162031765Y-126781432D01*
X162032672Y-126760577D01*
X162031765Y-126739721D01*
X162029043Y-126719029D01*
X162024506Y-126698663D01*
X162018155Y-126678786D01*
X162009989Y-126659562D01*
X162000008Y-126641153D01*
X161988213Y-126623724D01*
X161974603Y-126607436D01*
X161959179Y-126592454D01*
X161941940Y-126578940D01*
X161922886Y-126567058D01*
X161902017Y-126556970D01*
X161879334Y-126548840D01*
X161854836Y-126542830D01*
X161828524Y-126539105D01*
X161800397Y-126537827D01*
X161503398Y-126537827D01*
X161512986Y-126515565D01*
X161519714Y-126496721D01*
X161525963Y-126476214D01*
X161531661Y-126454204D01*
X161536737Y-126430849D01*
X161541117Y-126406309D01*
X161544729Y-126380743D01*
X161547501Y-126354312D01*
X161549359Y-126327173D01*
X161550233Y-126299488D01*
X161550292Y-126290165D01*
X161548977Y-126263272D01*
X161545149Y-126238098D01*
X161538987Y-126214646D01*
X161530669Y-126192918D01*
X161520373Y-126172916D01*
X161508278Y-126154642D01*
X161494561Y-126138098D01*
X161479401Y-126123286D01*
X161462976Y-126110209D01*
X161445464Y-126098868D01*
X161427043Y-126089267D01*
X161407891Y-126081406D01*
X161388187Y-126075288D01*
X161368109Y-126070916D01*
X161347835Y-126068291D01*
X161327543Y-126067415D01*
X161307245Y-126068291D01*
X161286956Y-126070916D01*
X161266853Y-126075288D01*
X161247118Y-126081406D01*
X161227930Y-126089267D01*
X161209468Y-126098868D01*
X161191911Y-126110209D01*
X161175441Y-126123286D01*
X161160235Y-126138098D01*
X161146474Y-126154642D01*
X161134337Y-126172916D01*
X161124005Y-126192918D01*
X161115655Y-126214646D01*
X161109469Y-126238098D01*
X161105626Y-126263272D01*
X161104305Y-126290165D01*
X161103273Y-126319592D01*
X161100190Y-126347229D01*
X161095080Y-126373062D01*
X161087964Y-126397075D01*
X161078864Y-126419253D01*
X161067803Y-126439581D01*
X161054803Y-126458045D01*
X161039886Y-126474629D01*
X161023074Y-126489319D01*
X161004390Y-126502098D01*
X160983855Y-126512953D01*
X160961492Y-126521867D01*
X160937322Y-126528827D01*
X160911369Y-126533817D01*
X160883655Y-126536822D01*
X160854200Y-126537827D01*
X160826561Y-126539105D01*
X160800706Y-126542830D01*
X160776635Y-126548840D01*
X160754349Y-126556970D01*
X160733848Y-126567058D01*
X160715133Y-126578940D01*
X160698204Y-126592454D01*
X160683062Y-126607436D01*
X160669708Y-126623724D01*
X160658142Y-126641153D01*
X160648364Y-126659562D01*
X160640375Y-126678786D01*
X160634176Y-126698663D01*
X160629767Y-126719029D01*
X160627149Y-126739721D01*
X160626322Y-126760577D01*
X160627286Y-126781432D01*
X160630043Y-126802125D01*
X160634593Y-126822491D01*
X160640936Y-126842367D01*
X160649073Y-126861592D01*
X160659005Y-126880000D01*
X160670731Y-126897429D01*
X160684253Y-126913717D01*
X160699571Y-126928699D01*
X160716686Y-126942213D01*
X160735597Y-126954096D01*
X160756307Y-126964184D01*
X160778814Y-126972314D01*
X160803120Y-126978323D01*
X160829226Y-126982048D01*
X160857131Y-126983326D01*
G37*
G36*
X162896917Y-126504087D02*
G01*
X162934589Y-126506902D01*
X162971902Y-126511575D01*
X163008796Y-126518091D01*
X163045212Y-126526434D01*
X163081091Y-126536588D01*
X163116373Y-126548537D01*
X163150999Y-126562267D01*
X163184909Y-126577761D01*
X163218045Y-126595004D01*
X163250346Y-126613981D01*
X163281753Y-126634675D01*
X163312207Y-126657072D01*
X163341649Y-126681156D01*
X163370018Y-126706910D01*
X163397257Y-126734321D01*
X163423305Y-126763371D01*
X163448102Y-126794046D01*
X163471590Y-126826330D01*
X163493710Y-126860207D01*
X163514401Y-126895662D01*
X163533604Y-126932679D01*
X163551261Y-126971243D01*
X163567311Y-127011338D01*
X163581695Y-127052948D01*
X163594354Y-127096059D01*
X163605228Y-127140654D01*
X163614259Y-127186717D01*
X163621386Y-127234235D01*
X163626550Y-127283189D01*
X163629692Y-127333566D01*
X163630753Y-127385350D01*
X163615121Y-127755134D01*
X163619333Y-127737593D01*
X163628560Y-127713498D01*
X163640942Y-127692043D01*
X163656100Y-127673202D01*
X163673654Y-127656951D01*
X163693226Y-127643267D01*
X163714436Y-127632125D01*
X163736904Y-127623501D01*
X163760253Y-127617371D01*
X163784102Y-127613710D01*
X163808073Y-127612496D01*
X163828962Y-127613392D01*
X163849747Y-127616071D01*
X163870258Y-127620517D01*
X163890322Y-127626715D01*
X163909768Y-127634651D01*
X163928424Y-127644309D01*
X163946118Y-127655675D01*
X163962679Y-127668733D01*
X163977935Y-127683468D01*
X163991713Y-127699865D01*
X164003843Y-127717910D01*
X164014153Y-127737586D01*
X164022471Y-127758880D01*
X164028625Y-127781776D01*
X164032443Y-127806259D01*
X164033754Y-127832314D01*
X164033208Y-127854572D01*
X164031587Y-127876539D01*
X164028915Y-127898189D01*
X164025215Y-127919493D01*
X164020511Y-127940424D01*
X164014826Y-127960956D01*
X164008186Y-127981061D01*
X164000613Y-128000712D01*
X163992131Y-128019881D01*
X163982764Y-128038541D01*
X163972536Y-128056666D01*
X163961471Y-128074226D01*
X163949592Y-128091196D01*
X163936924Y-128107548D01*
X163923489Y-128123255D01*
X163909312Y-128138289D01*
X163894417Y-128152624D01*
X163878827Y-128166231D01*
X163862566Y-128179084D01*
X163845658Y-128191156D01*
X163828127Y-128202418D01*
X163809996Y-128212844D01*
X163791290Y-128222407D01*
X163772032Y-128231079D01*
X163752246Y-128238833D01*
X163731956Y-128245641D01*
X163711185Y-128251477D01*
X163689957Y-128256313D01*
X163668296Y-128260122D01*
X163646227Y-128262876D01*
X163623772Y-128264549D01*
X163600955Y-128265113D01*
X163581131Y-128264671D01*
X163551973Y-128262400D01*
X163523599Y-128258289D01*
X163496107Y-128252439D01*
X163469596Y-128244952D01*
X163444166Y-128235929D01*
X163419915Y-128225471D01*
X163396942Y-128213680D01*
X163375347Y-128200658D01*
X163355228Y-128186505D01*
X163336685Y-128171323D01*
X163320004Y-128182117D01*
X163302592Y-128192323D01*
X163284484Y-128201927D01*
X163265717Y-128210914D01*
X163246325Y-128219267D01*
X163226346Y-128226973D01*
X163205814Y-128234017D01*
X163184766Y-128240383D01*
X163163236Y-128246056D01*
X163141262Y-128251022D01*
X163118878Y-128255265D01*
X163096121Y-128258770D01*
X163073026Y-128261522D01*
X163049629Y-128263507D01*
X163025965Y-128264709D01*
X163002072Y-128265113D01*
X162968412Y-128264326D01*
X162935323Y-128261978D01*
X162902837Y-128258088D01*
X162870987Y-128252674D01*
X162839806Y-128245756D01*
X162809326Y-128237353D01*
X162779580Y-128227483D01*
X162750601Y-128216165D01*
X162722421Y-128203418D01*
X162695073Y-128189261D01*
X162668590Y-128173712D01*
X162643003Y-128156792D01*
X162618347Y-128138518D01*
X162594653Y-128118909D01*
X162571955Y-128097985D01*
X162550284Y-128075763D01*
X162529673Y-128052264D01*
X162510156Y-128027506D01*
X162491764Y-128001507D01*
X162474531Y-127974287D01*
X162458489Y-127945865D01*
X162443671Y-127916259D01*
X162430108Y-127885488D01*
X162417835Y-127853571D01*
X162406884Y-127820527D01*
X162397287Y-127786375D01*
X162389076Y-127751134D01*
X162382286Y-127714823D01*
X162376947Y-127677460D01*
X162373093Y-127639064D01*
X162370757Y-127599655D01*
X162369971Y-127559251D01*
X162815959Y-127559251D01*
X162817035Y-127599044D01*
X162820169Y-127634672D01*
X162825223Y-127666356D01*
X162832056Y-127694317D01*
X162840529Y-127718774D01*
X162850503Y-127739948D01*
X162861838Y-127758060D01*
X162881086Y-127779967D01*
X162902613Y-127796224D01*
X162925945Y-127807572D01*
X162950613Y-127814758D01*
X162976146Y-127818524D01*
X163002072Y-127819614D01*
X163019263Y-127819148D01*
X163044737Y-127816356D01*
X163069437Y-127810393D01*
X163092913Y-127800515D01*
X163114717Y-127785977D01*
X163134398Y-127766036D01*
X163146118Y-127749373D01*
X163156563Y-127729758D01*
X163165598Y-127706970D01*
X163173092Y-127680788D01*
X163178910Y-127650994D01*
X163182920Y-127617365D01*
X163184989Y-127579682D01*
X163185254Y-127559251D01*
X163184200Y-127519344D01*
X163181130Y-127483563D01*
X163176177Y-127451693D01*
X163169477Y-127423520D01*
X163161167Y-127398831D01*
X163151380Y-127377411D01*
X163140252Y-127359046D01*
X163121341Y-127336760D01*
X163100174Y-127320146D01*
X163077208Y-127308480D01*
X163052897Y-127301041D01*
X163027700Y-127297108D01*
X163002072Y-127295957D01*
X162984767Y-127296451D01*
X162959051Y-127299376D01*
X162934043Y-127305566D01*
X162910213Y-127315743D01*
X162888032Y-127330628D01*
X162867972Y-127350943D01*
X162856009Y-127367860D01*
X162845337Y-127387726D01*
X162836096Y-127410754D01*
X162828426Y-127437158D01*
X162822465Y-127467153D01*
X162818353Y-127500951D01*
X162816231Y-127538769D01*
X162815959Y-127559251D01*
X162369971Y-127559251D01*
X162370347Y-127531247D01*
X162371430Y-127503945D01*
X162373156Y-127477508D01*
X162375458Y-127452098D01*
X162378273Y-127427875D01*
X162381534Y-127405003D01*
X162385177Y-127383643D01*
X162389137Y-127363956D01*
X162394795Y-127340589D01*
X162400746Y-127320870D01*
X162388669Y-127324808D01*
X162368792Y-127328623D01*
X162346992Y-127331236D01*
X162326985Y-127332105D01*
X162302749Y-127330759D01*
X162278591Y-127326784D01*
X162254795Y-127320278D01*
X162231646Y-127311337D01*
X162209427Y-127300057D01*
X162188422Y-127286535D01*
X162168915Y-127270869D01*
X162151191Y-127253153D01*
X162135533Y-127233486D01*
X162122226Y-127211963D01*
X162111554Y-127188682D01*
X162103800Y-127163738D01*
X162099249Y-127137228D01*
X162098185Y-127109250D01*
X162100892Y-127079899D01*
X162107655Y-127049272D01*
X162117604Y-127016933D01*
X162128746Y-126985500D01*
X162141050Y-126954983D01*
X162154482Y-126925387D01*
X162169012Y-126896722D01*
X162184606Y-126868995D01*
X162201233Y-126842214D01*
X162218861Y-126816386D01*
X162237458Y-126791520D01*
X162256992Y-126767624D01*
X162277431Y-126744706D01*
X162298742Y-126722772D01*
X162320894Y-126701832D01*
X162343855Y-126681893D01*
X162367593Y-126662963D01*
X162392075Y-126645050D01*
X162417270Y-126628161D01*
X162443146Y-126612305D01*
X162469671Y-126597489D01*
X162496812Y-126583722D01*
X162524537Y-126571011D01*
X162552816Y-126559363D01*
X162581614Y-126548788D01*
X162610902Y-126539293D01*
X162640646Y-126530885D01*
X162670814Y-126523572D01*
X162701375Y-126517363D01*
X162732296Y-126512266D01*
X162763546Y-126508287D01*
X162795092Y-126505435D01*
X162826903Y-126503719D01*
X162858946Y-126503145D01*
X162896917Y-126504087D01*
G37*
G36*
X165153931Y-126015250D02*
G01*
X165194196Y-126018440D01*
X165233125Y-126023665D01*
X165270719Y-126030852D01*
X165306978Y-126039928D01*
X165341902Y-126050817D01*
X165375492Y-126063447D01*
X165407749Y-126077742D01*
X165438673Y-126093630D01*
X165468265Y-126111036D01*
X165496524Y-126129886D01*
X165523451Y-126150106D01*
X165549047Y-126171622D01*
X165573312Y-126194361D01*
X165596247Y-126218248D01*
X165617852Y-126243209D01*
X165638127Y-126269171D01*
X165657073Y-126296059D01*
X165674691Y-126323799D01*
X165690980Y-126352318D01*
X165705942Y-126381541D01*
X165719577Y-126411395D01*
X165731885Y-126441805D01*
X165742866Y-126472698D01*
X165752521Y-126504000D01*
X165760851Y-126535636D01*
X165767856Y-126567532D01*
X165773536Y-126599616D01*
X165777893Y-126631812D01*
X165780925Y-126664047D01*
X165782634Y-126696246D01*
X165783021Y-126728337D01*
X165773740Y-126728825D01*
X165773674Y-126759692D01*
X165772285Y-126790695D01*
X165769572Y-126821760D01*
X165765536Y-126852815D01*
X165760174Y-126883786D01*
X165753487Y-126914600D01*
X165745474Y-126945184D01*
X165736134Y-126975465D01*
X165725467Y-127005369D01*
X165713471Y-127034824D01*
X165700148Y-127063756D01*
X165685495Y-127092092D01*
X165669512Y-127119760D01*
X165652198Y-127146685D01*
X165633554Y-127172794D01*
X165613577Y-127198016D01*
X165592269Y-127222275D01*
X165569627Y-127245500D01*
X165545652Y-127267616D01*
X165520342Y-127288551D01*
X165493698Y-127308232D01*
X165465718Y-127326586D01*
X165436402Y-127343539D01*
X165405750Y-127359017D01*
X165373760Y-127372949D01*
X165340432Y-127385261D01*
X165305765Y-127395879D01*
X165269759Y-127404731D01*
X165232413Y-127411743D01*
X165193727Y-127416842D01*
X165153699Y-127419955D01*
X165112330Y-127421009D01*
X164688324Y-127421009D01*
X164688324Y-128012565D01*
X164687014Y-128039040D01*
X164683195Y-128063868D01*
X164677042Y-128087042D01*
X164668724Y-128108553D01*
X164658414Y-128128392D01*
X164646284Y-128146552D01*
X164632505Y-128163022D01*
X164617250Y-128177796D01*
X164600689Y-128190863D01*
X164582995Y-128202216D01*
X164564339Y-128211846D01*
X164544893Y-128219744D01*
X164524829Y-128225903D01*
X164504318Y-128230312D01*
X164483533Y-128232964D01*
X164462644Y-128233850D01*
X164442319Y-128232964D01*
X164421952Y-128230312D01*
X164401729Y-128225903D01*
X164381838Y-128219744D01*
X164362465Y-128211846D01*
X164343796Y-128202216D01*
X164326019Y-128190863D01*
X164309321Y-128177796D01*
X164293887Y-128163022D01*
X164279906Y-128146552D01*
X164267563Y-128128392D01*
X164257045Y-128108553D01*
X164248540Y-128087042D01*
X164242233Y-128063868D01*
X164238312Y-128039040D01*
X164236964Y-128012565D01*
X164236964Y-126457227D01*
X164688324Y-126457227D01*
X164688324Y-126981372D01*
X165112330Y-126981372D01*
X165137865Y-126980149D01*
X165161886Y-126976532D01*
X165184380Y-126970601D01*
X165205333Y-126962436D01*
X165224732Y-126952115D01*
X165242564Y-126939718D01*
X165258814Y-126925325D01*
X165273469Y-126909015D01*
X165286516Y-126890868D01*
X165297940Y-126870962D01*
X165307729Y-126849378D01*
X165315868Y-126826194D01*
X165322345Y-126801491D01*
X165327144Y-126775347D01*
X165328949Y-126759379D01*
X165328729Y-126759600D01*
X165328944Y-126755914D01*
X165329711Y-126752635D01*
X165330254Y-126747842D01*
X165331660Y-126719055D01*
X165331660Y-126716124D01*
X165330737Y-126687940D01*
X165327986Y-126660962D01*
X165323433Y-126635275D01*
X165317105Y-126610963D01*
X165309028Y-126588110D01*
X165299228Y-126566802D01*
X165287733Y-126547123D01*
X165274568Y-126529157D01*
X165259761Y-126512988D01*
X165243337Y-126498701D01*
X165225323Y-126486380D01*
X165205745Y-126476110D01*
X165184631Y-126467975D01*
X165162006Y-126462060D01*
X165137897Y-126458449D01*
X165112330Y-126457227D01*
X164688324Y-126457227D01*
X164236964Y-126457227D01*
X164236964Y-126239851D01*
X164237867Y-126219445D01*
X164240570Y-126199018D01*
X164245065Y-126178755D01*
X164251343Y-126158839D01*
X164259396Y-126139455D01*
X164269215Y-126120788D01*
X164280791Y-126103023D01*
X164294117Y-126086344D01*
X164309182Y-126070936D01*
X164325979Y-126056984D01*
X164344499Y-126044671D01*
X164364733Y-126034183D01*
X164386674Y-126025705D01*
X164410311Y-126019420D01*
X164435638Y-126015514D01*
X164462644Y-126014171D01*
X165112330Y-126014171D01*
X165153931Y-126015250D01*
G37*
G36*
X166085882Y-126983326D02*
G01*
X166235359Y-126983326D01*
X166235359Y-127568532D01*
X166236095Y-127607878D01*
X166238289Y-127646309D01*
X166241921Y-127683804D01*
X166246967Y-127720339D01*
X166253407Y-127755894D01*
X166261218Y-127790447D01*
X166270381Y-127823975D01*
X166280872Y-127856456D01*
X166292670Y-127887869D01*
X166305754Y-127918192D01*
X166320103Y-127947403D01*
X166335694Y-127975480D01*
X166352506Y-128002400D01*
X166370518Y-128028143D01*
X166389707Y-128052686D01*
X166410053Y-128076008D01*
X166431534Y-128098085D01*
X166454129Y-128118897D01*
X166477815Y-128138422D01*
X166502571Y-128156637D01*
X166528376Y-128173521D01*
X166555208Y-128189052D01*
X166583045Y-128203208D01*
X166611867Y-128215966D01*
X166641651Y-128227306D01*
X166672375Y-128237205D01*
X166704019Y-128245641D01*
X166736561Y-128252592D01*
X166769979Y-128258037D01*
X166804252Y-128261953D01*
X166839358Y-128264319D01*
X166875275Y-128265113D01*
X166901894Y-128263835D01*
X166926795Y-128260109D01*
X166949979Y-128254100D01*
X166971446Y-128245970D01*
X166991195Y-128235882D01*
X167009227Y-128224000D01*
X167025542Y-128210486D01*
X167040139Y-128195503D01*
X167053019Y-128179216D01*
X167064181Y-128161786D01*
X167073627Y-128143378D01*
X167081355Y-128124154D01*
X167087365Y-128104277D01*
X167091659Y-128083911D01*
X167094235Y-128063219D01*
X167095093Y-128042363D01*
X167094235Y-128021508D01*
X167091659Y-128000815D01*
X167087365Y-127980449D01*
X167081355Y-127960572D01*
X167073627Y-127941348D01*
X167064181Y-127922940D01*
X167053019Y-127905510D01*
X167040139Y-127889223D01*
X167025542Y-127874241D01*
X167009227Y-127860727D01*
X166991195Y-127848844D01*
X166971446Y-127838756D01*
X166949979Y-127830626D01*
X166926795Y-127824617D01*
X166901894Y-127820892D01*
X166875275Y-127819614D01*
X166853933Y-127819102D01*
X166833542Y-127817440D01*
X166814161Y-127814442D01*
X166787114Y-127807029D01*
X166762669Y-127795554D01*
X166741026Y-127779384D01*
X166722383Y-127757886D01*
X166711718Y-127740282D01*
X166702533Y-127719842D01*
X166694886Y-127696378D01*
X166688837Y-127669702D01*
X166684443Y-127639628D01*
X166681764Y-127605967D01*
X166680858Y-127568532D01*
X166680858Y-126760577D01*
X166679784Y-126737226D01*
X166676616Y-126714681D01*
X166671436Y-126693039D01*
X166664325Y-126672397D01*
X166655366Y-126652852D01*
X166644639Y-126634499D01*
X166632226Y-126617435D01*
X166618209Y-126601758D01*
X166602670Y-126587563D01*
X166585689Y-126574947D01*
X166567348Y-126564008D01*
X166547730Y-126554840D01*
X166526915Y-126547542D01*
X166504986Y-126542209D01*
X166482023Y-126538939D01*
X166458108Y-126537827D01*
X166085882Y-126537827D01*
X166059263Y-126539105D01*
X166034362Y-126542830D01*
X166011178Y-126548840D01*
X165989711Y-126556970D01*
X165969962Y-126567058D01*
X165951930Y-126578940D01*
X165935615Y-126592454D01*
X165921018Y-126607436D01*
X165908138Y-126623724D01*
X165896975Y-126641153D01*
X165887530Y-126659562D01*
X165879802Y-126678786D01*
X165873791Y-126698663D01*
X165869498Y-126719029D01*
X165866922Y-126739721D01*
X165866063Y-126760577D01*
X165866922Y-126781432D01*
X165869498Y-126802125D01*
X165873791Y-126822491D01*
X165879802Y-126842367D01*
X165887530Y-126861592D01*
X165896975Y-126880000D01*
X165908138Y-126897429D01*
X165921018Y-126913717D01*
X165935615Y-126928699D01*
X165951930Y-126942213D01*
X165969962Y-126954096D01*
X165989711Y-126964184D01*
X166011178Y-126972314D01*
X166034362Y-126978323D01*
X166059263Y-126982048D01*
X166085882Y-126983326D01*
G37*
G36*
X166421960Y-126420591D02*
G01*
X166452695Y-126418970D01*
X166482686Y-126414221D01*
X166511763Y-126406513D01*
X166539754Y-126396014D01*
X166566489Y-126382893D01*
X166591796Y-126367319D01*
X166615504Y-126349461D01*
X166637443Y-126329488D01*
X166657442Y-126307569D01*
X166675329Y-126283872D01*
X166690933Y-126258566D01*
X166704084Y-126231821D01*
X166714610Y-126203806D01*
X166722340Y-126174688D01*
X166727103Y-126144637D01*
X166728729Y-126113822D01*
X166727103Y-126083087D01*
X166722340Y-126053096D01*
X166714610Y-126024019D01*
X166704084Y-125996028D01*
X166690933Y-125969293D01*
X166675329Y-125943986D01*
X166657442Y-125920277D01*
X166637443Y-125898338D01*
X166615504Y-125878340D01*
X166591796Y-125860453D01*
X166566489Y-125844849D01*
X166539754Y-125831698D01*
X166511763Y-125821172D01*
X166482686Y-125813442D01*
X166452695Y-125808678D01*
X166421960Y-125807053D01*
X166390657Y-125808678D01*
X166360232Y-125813442D01*
X166330843Y-125821172D01*
X166302648Y-125831698D01*
X166275803Y-125844849D01*
X166250467Y-125860453D01*
X166226797Y-125878340D01*
X166204950Y-125898338D01*
X166185084Y-125920277D01*
X166167356Y-125943986D01*
X166151923Y-125969293D01*
X166138944Y-125996028D01*
X166128574Y-126024019D01*
X166120973Y-126053096D01*
X166116296Y-126083087D01*
X166114703Y-126113822D01*
X166116296Y-126144637D01*
X166120973Y-126174688D01*
X166128574Y-126203806D01*
X166138944Y-126231821D01*
X166151923Y-126258566D01*
X166167356Y-126283872D01*
X166185084Y-126307569D01*
X166204950Y-126329488D01*
X166226797Y-126349461D01*
X166250467Y-126367319D01*
X166275803Y-126382893D01*
X166302648Y-126396014D01*
X166330843Y-126406513D01*
X166360232Y-126414221D01*
X166390657Y-126418970D01*
X166421960Y-126420591D01*
G37*
G36*
X167597745Y-128171812D02*
G01*
X167926985Y-127726313D01*
X168261597Y-128171812D01*
X168275279Y-128189238D01*
X168289856Y-128204729D01*
X168305193Y-128218333D01*
X168321154Y-128230098D01*
X168343174Y-128243009D01*
X168365744Y-128252851D01*
X168388543Y-128259739D01*
X168411249Y-128263788D01*
X168433544Y-128265113D01*
X168463170Y-128262921D01*
X168492247Y-128256553D01*
X168520373Y-128246321D01*
X168547148Y-128232537D01*
X168572171Y-128215513D01*
X168595042Y-128195561D01*
X168615360Y-128172992D01*
X168632724Y-128148120D01*
X168646734Y-128121256D01*
X168656988Y-128092711D01*
X168663087Y-128062799D01*
X168664629Y-128031830D01*
X168661213Y-128000117D01*
X168652439Y-127967972D01*
X168637907Y-127935707D01*
X168617215Y-127903633D01*
X168212260Y-127363368D01*
X168594745Y-126845085D01*
X168605920Y-126828875D01*
X168623488Y-126796307D01*
X168635023Y-126763792D01*
X168640937Y-126731632D01*
X168641641Y-126700132D01*
X168637548Y-126669593D01*
X168629070Y-126640318D01*
X168616619Y-126612610D01*
X168600608Y-126586771D01*
X168581448Y-126563104D01*
X168559552Y-126541911D01*
X168535332Y-126523497D01*
X168509200Y-126508162D01*
X168481568Y-126496210D01*
X168452849Y-126487944D01*
X168423454Y-126483666D01*
X168408632Y-126483117D01*
X168386055Y-126484462D01*
X168363210Y-126488566D01*
X168340376Y-126495533D01*
X168317834Y-126505465D01*
X168295865Y-126518465D01*
X168279932Y-126530291D01*
X168264598Y-126543944D01*
X168249979Y-126559468D01*
X168236196Y-126576906D01*
X167937731Y-126992607D01*
X167626077Y-126576906D01*
X167612294Y-126559468D01*
X167597676Y-126543944D01*
X167582341Y-126530291D01*
X167566409Y-126518465D01*
X167544439Y-126505465D01*
X167521897Y-126495533D01*
X167499064Y-126488566D01*
X167476218Y-126484462D01*
X167453642Y-126483117D01*
X167424102Y-126485325D01*
X167395100Y-126491738D01*
X167367037Y-126502037D01*
X167340313Y-126515906D01*
X167315330Y-126533027D01*
X167292488Y-126553081D01*
X167272187Y-126575751D01*
X167254828Y-126600720D01*
X167240813Y-126627669D01*
X167230541Y-126656281D01*
X167224414Y-126686239D01*
X167222832Y-126717224D01*
X167226197Y-126748918D01*
X167234907Y-126781005D01*
X167249365Y-126813167D01*
X167269971Y-126845085D01*
X167652456Y-127357506D01*
X167242128Y-127903633D01*
X167221468Y-127935707D01*
X167207023Y-127967972D01*
X167198381Y-128000117D01*
X167195126Y-128031830D01*
X167196846Y-128062799D01*
X167203127Y-128092711D01*
X167213555Y-128121256D01*
X167227717Y-128148120D01*
X167245200Y-128172992D01*
X167265588Y-128195561D01*
X167288470Y-128215513D01*
X167313431Y-128232537D01*
X167340058Y-128246321D01*
X167367938Y-128256553D01*
X167396655Y-128262921D01*
X167425798Y-128265113D01*
X167448093Y-128263788D01*
X167470800Y-128259739D01*
X167493599Y-128252851D01*
X167516168Y-128243009D01*
X167538188Y-128230098D01*
X167554150Y-128218333D01*
X167569487Y-128204729D01*
X167584063Y-128189238D01*
X167597745Y-128171812D01*
G37*
G36*
X169445306Y-126507515D02*
G01*
X169481069Y-126510333D01*
X169515836Y-126514970D01*
X169549598Y-126521375D01*
X169582340Y-126529499D01*
X169614052Y-126539292D01*
X169644722Y-126550704D01*
X169674336Y-126563686D01*
X169702884Y-126578188D01*
X169730352Y-126594160D01*
X169756730Y-126611552D01*
X169782004Y-126630315D01*
X169806164Y-126650399D01*
X169829195Y-126671754D01*
X169851088Y-126694330D01*
X169871829Y-126718078D01*
X169891407Y-126742949D01*
X169909809Y-126768891D01*
X169927024Y-126795856D01*
X169943039Y-126823794D01*
X169957842Y-126852654D01*
X169971421Y-126882388D01*
X169983764Y-126912946D01*
X169994859Y-126944278D01*
X170004694Y-126976334D01*
X170013257Y-127009064D01*
X170020536Y-127042419D01*
X170026518Y-127076348D01*
X170031192Y-127110803D01*
X170034546Y-127145734D01*
X170036566Y-127181090D01*
X170037243Y-127216822D01*
X170037176Y-127229169D01*
X170036676Y-127253543D01*
X170035764Y-127277012D01*
X170034531Y-127299005D01*
X170032679Y-127323546D01*
X170030648Y-127343768D01*
X170027473Y-127364345D01*
X170040015Y-127360148D01*
X170060202Y-127355674D01*
X170082518Y-127352124D01*
X170103352Y-127350014D01*
X170125170Y-127349202D01*
X170148312Y-127350356D01*
X170171406Y-127353787D01*
X170194197Y-127359448D01*
X170216433Y-127367291D01*
X170237859Y-127377270D01*
X170258221Y-127389336D01*
X170277264Y-127403443D01*
X170294736Y-127419544D01*
X170310381Y-127437591D01*
X170323947Y-127457537D01*
X170335178Y-127479335D01*
X170343821Y-127502938D01*
X170349622Y-127528298D01*
X170352327Y-127555368D01*
X170351681Y-127584101D01*
X170347431Y-127614450D01*
X170339362Y-127651515D01*
X170330011Y-127687686D01*
X170319400Y-127722945D01*
X170307557Y-127757272D01*
X170294504Y-127790649D01*
X170280269Y-127823057D01*
X170264874Y-127854479D01*
X170248345Y-127884895D01*
X170230707Y-127914287D01*
X170211985Y-127942637D01*
X170192203Y-127969926D01*
X170171387Y-127996135D01*
X170149562Y-128021247D01*
X170126751Y-128045241D01*
X170102981Y-128068101D01*
X170078276Y-128089807D01*
X170052660Y-128110341D01*
X170026159Y-128129685D01*
X169998798Y-128147819D01*
X169970601Y-128164726D01*
X169941593Y-128180387D01*
X169911800Y-128194782D01*
X169881245Y-128207895D01*
X169849954Y-128219706D01*
X169817952Y-128230197D01*
X169785264Y-128239349D01*
X169751914Y-128247144D01*
X169717928Y-128253564D01*
X169683329Y-128258588D01*
X169648144Y-128262201D01*
X169612397Y-128264382D01*
X169576112Y-128265113D01*
X169573670Y-128265113D01*
X169529359Y-128264049D01*
X169486021Y-128260883D01*
X169443684Y-128255653D01*
X169402377Y-128248400D01*
X169362129Y-128239161D01*
X169322967Y-128227976D01*
X169284921Y-128214884D01*
X169248018Y-128199923D01*
X169212287Y-128183132D01*
X169177757Y-128164550D01*
X169144455Y-128144217D01*
X169112412Y-128122170D01*
X169081654Y-128098450D01*
X169052210Y-128073094D01*
X169024109Y-128046143D01*
X168997379Y-128017634D01*
X168972049Y-127987606D01*
X168948147Y-127956099D01*
X168925701Y-127923151D01*
X168904740Y-127888802D01*
X168885293Y-127853090D01*
X168867388Y-127816054D01*
X168851052Y-127777733D01*
X168836316Y-127738166D01*
X168823207Y-127697392D01*
X168811753Y-127655450D01*
X168801984Y-127612378D01*
X168793927Y-127568216D01*
X168787610Y-127523003D01*
X168783064Y-127476776D01*
X168780315Y-127429577D01*
X168779392Y-127381442D01*
X168779392Y-127219265D01*
X168779437Y-127216822D01*
X169225380Y-127216822D01*
X169225653Y-127236541D01*
X169227783Y-127273175D01*
X169231905Y-127306211D01*
X169237871Y-127335812D01*
X169245535Y-127362146D01*
X169254753Y-127385377D01*
X169265377Y-127405670D01*
X169277262Y-127423190D01*
X169290262Y-127438103D01*
X169311532Y-127455947D01*
X169334490Y-127468853D01*
X169358643Y-127477382D01*
X169383498Y-127482090D01*
X169408562Y-127483535D01*
X169434077Y-127482090D01*
X169459206Y-127477382D01*
X169483485Y-127468853D01*
X169506450Y-127455947D01*
X169527637Y-127438103D01*
X169540546Y-127423190D01*
X169552321Y-127405670D01*
X169562825Y-127385377D01*
X169571922Y-127362146D01*
X169579472Y-127335812D01*
X169585340Y-127306211D01*
X169589387Y-127273175D01*
X169591476Y-127236541D01*
X169591744Y-127216822D01*
X169591476Y-127197066D01*
X169589387Y-127160405D01*
X169585340Y-127127399D01*
X169579472Y-127097876D01*
X169571922Y-127071662D01*
X169562825Y-127048585D01*
X169552321Y-127028471D01*
X169540546Y-127011146D01*
X169527637Y-126996439D01*
X169506450Y-126978905D01*
X169483485Y-126966285D01*
X169459206Y-126957994D01*
X169434077Y-126953448D01*
X169408562Y-126952063D01*
X169382596Y-126953636D01*
X169359037Y-126958210D01*
X169337783Y-126965571D01*
X169318734Y-126975503D01*
X169301788Y-126987790D01*
X169286846Y-127002218D01*
X169273805Y-127018570D01*
X169262566Y-127036632D01*
X169253026Y-127056188D01*
X169245086Y-127077023D01*
X169238644Y-127098921D01*
X169233600Y-127121667D01*
X169229852Y-127145045D01*
X169227300Y-127168841D01*
X169225843Y-127192838D01*
X169225380Y-127216822D01*
X168779437Y-127216822D01*
X168780060Y-127183311D01*
X168782057Y-127147746D01*
X168785373Y-127112621D01*
X168789998Y-127077985D01*
X168795920Y-127043886D01*
X168803130Y-127010374D01*
X168811617Y-126977498D01*
X168821371Y-126945308D01*
X168832382Y-126913853D01*
X168844639Y-126883182D01*
X168858131Y-126853345D01*
X168872849Y-126824390D01*
X168888782Y-126796367D01*
X168905920Y-126769326D01*
X168924252Y-126743315D01*
X168943768Y-126718384D01*
X168964457Y-126694582D01*
X168986309Y-126671958D01*
X169009314Y-126650563D01*
X169033462Y-126630444D01*
X169058742Y-126611651D01*
X169085143Y-126594235D01*
X169112655Y-126578242D01*
X169141268Y-126563725D01*
X169170972Y-126550730D01*
X169201756Y-126539308D01*
X169233610Y-126529508D01*
X169266523Y-126521380D01*
X169300485Y-126514972D01*
X169335486Y-126510334D01*
X169371515Y-126507515D01*
X169408562Y-126506564D01*
X169445306Y-126507515D01*
G37*
G36*
X171215959Y-128265113D02*
G01*
X171242533Y-128263835D01*
X171267393Y-128260109D01*
X171290538Y-128254100D01*
X171311969Y-128245970D01*
X171331686Y-128235882D01*
X171349687Y-128224000D01*
X171365975Y-128210486D01*
X171380548Y-128195503D01*
X171393406Y-128179216D01*
X171404551Y-128161786D01*
X171413980Y-128143378D01*
X171421695Y-128124154D01*
X171427696Y-128104277D01*
X171431982Y-128083911D01*
X171434554Y-128063219D01*
X171435411Y-128042363D01*
X171434554Y-128021508D01*
X171431982Y-128000815D01*
X171427696Y-127980449D01*
X171421695Y-127960572D01*
X171413980Y-127941348D01*
X171404551Y-127922940D01*
X171393406Y-127905510D01*
X171380548Y-127889223D01*
X171365975Y-127874241D01*
X171349687Y-127860727D01*
X171331686Y-127848844D01*
X171311969Y-127838756D01*
X171290538Y-127830626D01*
X171267393Y-127824617D01*
X171242533Y-127820892D01*
X171215959Y-127819614D01*
X171190998Y-127819057D01*
X171167258Y-127817241D01*
X171144794Y-127813950D01*
X171123658Y-127808966D01*
X171103905Y-127802074D01*
X171085588Y-127793055D01*
X171068760Y-127781694D01*
X171053476Y-127767773D01*
X171039789Y-127751076D01*
X171027753Y-127731386D01*
X171017422Y-127708485D01*
X171008848Y-127682158D01*
X171002087Y-127652188D01*
X170997191Y-127618357D01*
X170994214Y-127580448D01*
X170993462Y-127559897D01*
X170993209Y-127538246D01*
X170993209Y-126183187D01*
X170991894Y-126156213D01*
X170988066Y-126130980D01*
X170981904Y-126107487D01*
X170973586Y-126085734D01*
X170963290Y-126065721D01*
X170951195Y-126047449D01*
X170937478Y-126030916D01*
X170922318Y-126016124D01*
X170905893Y-126003073D01*
X170888380Y-125991761D01*
X170869960Y-125982190D01*
X170850808Y-125974359D01*
X170831104Y-125968268D01*
X170811026Y-125963918D01*
X170790752Y-125961307D01*
X170770460Y-125960437D01*
X170750168Y-125961307D01*
X170729894Y-125963918D01*
X170709815Y-125968268D01*
X170690112Y-125974359D01*
X170670960Y-125982190D01*
X170652539Y-125991761D01*
X170635027Y-126003073D01*
X170618602Y-126016124D01*
X170603442Y-126030916D01*
X170589725Y-126047449D01*
X170577630Y-126065721D01*
X170567334Y-126085734D01*
X170559016Y-126107487D01*
X170552854Y-126130980D01*
X170549026Y-126156213D01*
X170547710Y-126183187D01*
X170547710Y-127538246D01*
X170548513Y-127581117D01*
X170550900Y-127622803D01*
X170554844Y-127663293D01*
X170560316Y-127702575D01*
X170567285Y-127740636D01*
X170575724Y-127777467D01*
X170585604Y-127813055D01*
X170596895Y-127847389D01*
X170609568Y-127880456D01*
X170623595Y-127912247D01*
X170638946Y-127942748D01*
X170655593Y-127971950D01*
X170673507Y-127999839D01*
X170692658Y-128026404D01*
X170713017Y-128051635D01*
X170734556Y-128075519D01*
X170757246Y-128098045D01*
X170781057Y-128119201D01*
X170805961Y-128138976D01*
X170831929Y-128157359D01*
X170858931Y-128174337D01*
X170886939Y-128189899D01*
X170915924Y-128204034D01*
X170945857Y-128216730D01*
X170976708Y-128227975D01*
X171008449Y-128237759D01*
X171041051Y-128246069D01*
X171074485Y-128252894D01*
X171108722Y-128258222D01*
X171143732Y-128262042D01*
X171179487Y-128264343D01*
X171215959Y-128265113D01*
G37*
G36*
X173204175Y-126015250D02*
G01*
X173244440Y-126018440D01*
X173283369Y-126023665D01*
X173320963Y-126030852D01*
X173357222Y-126039928D01*
X173392146Y-126050817D01*
X173425737Y-126063447D01*
X173457994Y-126077742D01*
X173488918Y-126093630D01*
X173518509Y-126111036D01*
X173546768Y-126129886D01*
X173573695Y-126150106D01*
X173599291Y-126171622D01*
X173623556Y-126194361D01*
X173646491Y-126218248D01*
X173668096Y-126243209D01*
X173688371Y-126269171D01*
X173707318Y-126296059D01*
X173724935Y-126323799D01*
X173741225Y-126352318D01*
X173756187Y-126381541D01*
X173769821Y-126411395D01*
X173782129Y-126441805D01*
X173793110Y-126472698D01*
X173802766Y-126504000D01*
X173811095Y-126535636D01*
X173818100Y-126567532D01*
X173823781Y-126599616D01*
X173828137Y-126631812D01*
X173831169Y-126664047D01*
X173832879Y-126696246D01*
X173833265Y-126728337D01*
X173823984Y-126728825D01*
X173824070Y-126755693D01*
X173823141Y-126782683D01*
X173821199Y-126809744D01*
X173818247Y-126836826D01*
X173814289Y-126863880D01*
X173809328Y-126890855D01*
X173803366Y-126917702D01*
X173796407Y-126944369D01*
X173788455Y-126970808D01*
X173779512Y-126996967D01*
X173769581Y-127022798D01*
X173758665Y-127048249D01*
X173746768Y-127073271D01*
X173733893Y-127097813D01*
X173720043Y-127121826D01*
X173705221Y-127145259D01*
X173689430Y-127168063D01*
X173672673Y-127190186D01*
X173654954Y-127211580D01*
X173636275Y-127232194D01*
X173616640Y-127251978D01*
X173596051Y-127270882D01*
X173574513Y-127288856D01*
X173552027Y-127305849D01*
X173528598Y-127321812D01*
X173504228Y-127336694D01*
X173478920Y-127350446D01*
X173452679Y-127363017D01*
X173425505Y-127374357D01*
X173397404Y-127384417D01*
X173368377Y-127393145D01*
X173338429Y-127400493D01*
X173346397Y-127430045D01*
X173354472Y-127458269D01*
X173362678Y-127485191D01*
X173371037Y-127510835D01*
X173379576Y-127535228D01*
X173388316Y-127558395D01*
X173397281Y-127580362D01*
X173406497Y-127601154D01*
X173415985Y-127620796D01*
X173425771Y-127639315D01*
X173446329Y-127673085D01*
X173468361Y-127702667D01*
X173492058Y-127728267D01*
X173517609Y-127750088D01*
X173545206Y-127768336D01*
X173575037Y-127783215D01*
X173607295Y-127794930D01*
X173642168Y-127803685D01*
X173679848Y-127809686D01*
X173699800Y-127811717D01*
X173720525Y-127813136D01*
X173742047Y-127813968D01*
X173764389Y-127814240D01*
X173791229Y-127815534D01*
X173816338Y-127819304D01*
X173839715Y-127825386D01*
X173861361Y-127833614D01*
X173881275Y-127843823D01*
X173899457Y-127855849D01*
X173915907Y-127869526D01*
X173930626Y-127884689D01*
X173943614Y-127901173D01*
X173954869Y-127918813D01*
X173964394Y-127937443D01*
X173972186Y-127956899D01*
X173978247Y-127977016D01*
X173982576Y-127997627D01*
X173985173Y-128018569D01*
X173986039Y-128039676D01*
X173985173Y-128060784D01*
X173982576Y-128081726D01*
X173978247Y-128102337D01*
X173972186Y-128122454D01*
X173964394Y-128141910D01*
X173954869Y-128160540D01*
X173943614Y-128178180D01*
X173930626Y-128194664D01*
X173915907Y-128209827D01*
X173899457Y-128223504D01*
X173881275Y-128235530D01*
X173861361Y-128245739D01*
X173839715Y-128253967D01*
X173816338Y-128260049D01*
X173791229Y-128263819D01*
X173764389Y-128265113D01*
X173715154Y-128264125D01*
X173667717Y-128261193D01*
X173622041Y-128256361D01*
X173578089Y-128249672D01*
X173535824Y-128241171D01*
X173495210Y-128230903D01*
X173456209Y-128218912D01*
X173418785Y-128205243D01*
X173382901Y-128189939D01*
X173348520Y-128173044D01*
X173315605Y-128154605D01*
X173284119Y-128134664D01*
X173254026Y-128113266D01*
X173225289Y-128090456D01*
X173197870Y-128066278D01*
X173171733Y-128040776D01*
X173146842Y-128013994D01*
X173123158Y-127985977D01*
X173100646Y-127956770D01*
X173079268Y-127926416D01*
X173058988Y-127894961D01*
X173039769Y-127862448D01*
X173021574Y-127828921D01*
X173004366Y-127794426D01*
X172988108Y-127759006D01*
X172972764Y-127722706D01*
X172958296Y-127685571D01*
X172944668Y-127647644D01*
X172931842Y-127608970D01*
X172919783Y-127569593D01*
X172908453Y-127529558D01*
X172897815Y-127488909D01*
X172879253Y-127421009D01*
X172738569Y-127421009D01*
X172738569Y-128042363D01*
X172737258Y-128069370D01*
X172733440Y-128094696D01*
X172727286Y-128118334D01*
X172718968Y-128140274D01*
X172708659Y-128160508D01*
X172696528Y-128179028D01*
X172682750Y-128195825D01*
X172667494Y-128210891D01*
X172650933Y-128224216D01*
X172633239Y-128235792D01*
X172614583Y-128245611D01*
X172595137Y-128253664D01*
X172575073Y-128259942D01*
X172554562Y-128264437D01*
X172533777Y-128267140D01*
X172512888Y-128268043D01*
X172492483Y-128267140D01*
X172472056Y-128264437D01*
X172451792Y-128259942D01*
X172431876Y-128253664D01*
X172412492Y-128245611D01*
X172393826Y-128235792D01*
X172376061Y-128224216D01*
X172359382Y-128210891D01*
X172343974Y-128195825D01*
X172330021Y-128179028D01*
X172317708Y-128160508D01*
X172307221Y-128140274D01*
X172298742Y-128118334D01*
X172292457Y-128094696D01*
X172288551Y-128069370D01*
X172287208Y-128042363D01*
X172287208Y-126457227D01*
X172738569Y-126457227D01*
X172738569Y-126978441D01*
X173162574Y-126978441D01*
X173188109Y-126977251D01*
X173212130Y-126973727D01*
X173234624Y-126967941D01*
X173255577Y-126959963D01*
X173274977Y-126949864D01*
X173292808Y-126937715D01*
X173309058Y-126923586D01*
X173323714Y-126907550D01*
X173336760Y-126889676D01*
X173348185Y-126870035D01*
X173357973Y-126848698D01*
X173366113Y-126825736D01*
X173372589Y-126801220D01*
X173377389Y-126775221D01*
X173379184Y-126759388D01*
X173378973Y-126759600D01*
X173379188Y-126755914D01*
X173379945Y-126752681D01*
X173380498Y-126747809D01*
X173381904Y-126719055D01*
X173380981Y-126690355D01*
X173378230Y-126662925D01*
X173373677Y-126636847D01*
X173367349Y-126612199D01*
X173359272Y-126589063D01*
X173349473Y-126567518D01*
X173337977Y-126547645D01*
X173324813Y-126529523D01*
X173310005Y-126513233D01*
X173293581Y-126498855D01*
X173275567Y-126486469D01*
X173255990Y-126476156D01*
X173234875Y-126467995D01*
X173212250Y-126462066D01*
X173188141Y-126458450D01*
X173162574Y-126457227D01*
X172738569Y-126457227D01*
X172287208Y-126457227D01*
X172287208Y-126239851D01*
X172288111Y-126219445D01*
X172290814Y-126199018D01*
X172295309Y-126178755D01*
X172301588Y-126158839D01*
X172309641Y-126139455D01*
X172319459Y-126120788D01*
X172331036Y-126103023D01*
X172344361Y-126086344D01*
X172359426Y-126070936D01*
X172376223Y-126056984D01*
X172394743Y-126044671D01*
X172414977Y-126034183D01*
X172436918Y-126025705D01*
X172460555Y-126019420D01*
X172485882Y-126015514D01*
X172512888Y-126014171D01*
X173162574Y-126014171D01*
X173204175Y-126015250D01*
G37*
G36*
X174750261Y-126507515D02*
G01*
X174786023Y-126510333D01*
X174820791Y-126514970D01*
X174854552Y-126521375D01*
X174887295Y-126529499D01*
X174919007Y-126539292D01*
X174949676Y-126550704D01*
X174979291Y-126563686D01*
X175007838Y-126578188D01*
X175035307Y-126594160D01*
X175061684Y-126611552D01*
X175086959Y-126630315D01*
X175111118Y-126650399D01*
X175134150Y-126671754D01*
X175156043Y-126694330D01*
X175176784Y-126718078D01*
X175196362Y-126742949D01*
X175214764Y-126768891D01*
X175231978Y-126795856D01*
X175247993Y-126823794D01*
X175262796Y-126852654D01*
X175276375Y-126882388D01*
X175288719Y-126912946D01*
X175299814Y-126944278D01*
X175309649Y-126976334D01*
X175318212Y-127009064D01*
X175325490Y-127042419D01*
X175331473Y-127076348D01*
X175336147Y-127110803D01*
X175339500Y-127145734D01*
X175341521Y-127181090D01*
X175342197Y-127216822D01*
X175342131Y-127229169D01*
X175341631Y-127253543D01*
X175340719Y-127277012D01*
X175339486Y-127299005D01*
X175337634Y-127323546D01*
X175335603Y-127343768D01*
X175332428Y-127364345D01*
X175344970Y-127360148D01*
X175365156Y-127355674D01*
X175387473Y-127352124D01*
X175408307Y-127350014D01*
X175430125Y-127349202D01*
X175453267Y-127350356D01*
X175476360Y-127353787D01*
X175499152Y-127359448D01*
X175521388Y-127367291D01*
X175542814Y-127377270D01*
X175563175Y-127389336D01*
X175582219Y-127403443D01*
X175599690Y-127419544D01*
X175615336Y-127437591D01*
X175628901Y-127457537D01*
X175640133Y-127479335D01*
X175648776Y-127502938D01*
X175654577Y-127528298D01*
X175657281Y-127555368D01*
X175656636Y-127584101D01*
X175652386Y-127614450D01*
X175644317Y-127651515D01*
X175634965Y-127687686D01*
X175624355Y-127722945D01*
X175612511Y-127757272D01*
X175599459Y-127790649D01*
X175585223Y-127823057D01*
X175569828Y-127854479D01*
X175553300Y-127884895D01*
X175535662Y-127914287D01*
X175516940Y-127942637D01*
X175497158Y-127969926D01*
X175476342Y-127996135D01*
X175454516Y-128021247D01*
X175431706Y-128045241D01*
X175407936Y-128068101D01*
X175383230Y-128089807D01*
X175357615Y-128110341D01*
X175331114Y-128129685D01*
X175303752Y-128147819D01*
X175275555Y-128164726D01*
X175246548Y-128180387D01*
X175216754Y-128194782D01*
X175186200Y-128207895D01*
X175154909Y-128219706D01*
X175122907Y-128230197D01*
X175090219Y-128239349D01*
X175056869Y-128247144D01*
X175022882Y-128253564D01*
X174988284Y-128258588D01*
X174953099Y-128262201D01*
X174917351Y-128264382D01*
X174881067Y-128265113D01*
X174878625Y-128265113D01*
X174834314Y-128264049D01*
X174790975Y-128260883D01*
X174748639Y-128255653D01*
X174707332Y-128248400D01*
X174667084Y-128239161D01*
X174627922Y-128227976D01*
X174589875Y-128214884D01*
X174552972Y-128199923D01*
X174517242Y-128183132D01*
X174482711Y-128164550D01*
X174449410Y-128144217D01*
X174417366Y-128122170D01*
X174386608Y-128098450D01*
X174357164Y-128073094D01*
X174329063Y-128046143D01*
X174302334Y-128017634D01*
X174277003Y-127987606D01*
X174253101Y-127956099D01*
X174230656Y-127923151D01*
X174209695Y-127888802D01*
X174190248Y-127853090D01*
X174172342Y-127816054D01*
X174156007Y-127777733D01*
X174141271Y-127738166D01*
X174128161Y-127697392D01*
X174116708Y-127655450D01*
X174106938Y-127612378D01*
X174098881Y-127568216D01*
X174092565Y-127523003D01*
X174088018Y-127476776D01*
X174085269Y-127429577D01*
X174084347Y-127381442D01*
X174084347Y-127219265D01*
X174084392Y-127216822D01*
X174530334Y-127216822D01*
X174530607Y-127236541D01*
X174532738Y-127273175D01*
X174536859Y-127306211D01*
X174542825Y-127335812D01*
X174550490Y-127362146D01*
X174559707Y-127385377D01*
X174570331Y-127405670D01*
X174582216Y-127423190D01*
X174595216Y-127438103D01*
X174616487Y-127455947D01*
X174639445Y-127468853D01*
X174663598Y-127477382D01*
X174688452Y-127482090D01*
X174713516Y-127483535D01*
X174739032Y-127482090D01*
X174764161Y-127477382D01*
X174788439Y-127468853D01*
X174811404Y-127455947D01*
X174832592Y-127438103D01*
X174845501Y-127423190D01*
X174857276Y-127405670D01*
X174867780Y-127385377D01*
X174876876Y-127362146D01*
X174884427Y-127335812D01*
X174890294Y-127306211D01*
X174894341Y-127273175D01*
X174896431Y-127236541D01*
X174896699Y-127216822D01*
X174896431Y-127197066D01*
X174894341Y-127160405D01*
X174890294Y-127127399D01*
X174884427Y-127097876D01*
X174876876Y-127071662D01*
X174867780Y-127048585D01*
X174857276Y-127028471D01*
X174845501Y-127011146D01*
X174832592Y-126996439D01*
X174811404Y-126978905D01*
X174788439Y-126966285D01*
X174764161Y-126957994D01*
X174739032Y-126953448D01*
X174713516Y-126952063D01*
X174687551Y-126953636D01*
X174663991Y-126958210D01*
X174642738Y-126965571D01*
X174623688Y-126975503D01*
X174606743Y-126987790D01*
X174591800Y-127002218D01*
X174578760Y-127018570D01*
X174567520Y-127036632D01*
X174557981Y-127056188D01*
X174550041Y-127077023D01*
X174543599Y-127098921D01*
X174538555Y-127121667D01*
X174534807Y-127145045D01*
X174532255Y-127168841D01*
X174530798Y-127192838D01*
X174530334Y-127216822D01*
X174084392Y-127216822D01*
X174085015Y-127183311D01*
X174087012Y-127147746D01*
X174090328Y-127112621D01*
X174094952Y-127077985D01*
X174100875Y-127043886D01*
X174108085Y-127010374D01*
X174116572Y-126977498D01*
X174126326Y-126945308D01*
X174137337Y-126913853D01*
X174149594Y-126883182D01*
X174163086Y-126853345D01*
X174177804Y-126824390D01*
X174193737Y-126796367D01*
X174210875Y-126769326D01*
X174229206Y-126743315D01*
X174248722Y-126718384D01*
X174269412Y-126694582D01*
X174291264Y-126671958D01*
X174314269Y-126650563D01*
X174338417Y-126630444D01*
X174363696Y-126611651D01*
X174390097Y-126594235D01*
X174417610Y-126578242D01*
X174446223Y-126563725D01*
X174475927Y-126550730D01*
X174506711Y-126539308D01*
X174538565Y-126529508D01*
X174571478Y-126521380D01*
X174605440Y-126514972D01*
X174640441Y-126510334D01*
X174676470Y-126507515D01*
X174713516Y-126506564D01*
X174750261Y-126507515D01*
G37*
G36*
X175747641Y-126797702D02*
G01*
X176310376Y-128129314D01*
X176319083Y-128147008D01*
X176333767Y-128171219D01*
X176350188Y-128192641D01*
X176368102Y-128211288D01*
X176387269Y-128227171D01*
X176407447Y-128240303D01*
X176428395Y-128250696D01*
X176449871Y-128258361D01*
X176471633Y-128263310D01*
X176493441Y-128265557D01*
X176515052Y-128265113D01*
X176537297Y-128265627D01*
X176559631Y-128263558D01*
X176581808Y-128258850D01*
X176603580Y-128251443D01*
X176624702Y-128241279D01*
X176644927Y-128228302D01*
X176664009Y-128212452D01*
X176681702Y-128193672D01*
X176697758Y-128171903D01*
X176711933Y-128147089D01*
X176720216Y-128128825D01*
X177288324Y-126797702D01*
X177299714Y-126765189D01*
X177306261Y-126733695D01*
X177308297Y-126703368D01*
X177306154Y-126674359D01*
X177300165Y-126646815D01*
X177290660Y-126620885D01*
X177277973Y-126596718D01*
X177262435Y-126574464D01*
X177244378Y-126554270D01*
X177224134Y-126536285D01*
X177202036Y-126520660D01*
X177178415Y-126507541D01*
X177153604Y-126497079D01*
X177127933Y-126489421D01*
X177101736Y-126484718D01*
X177075345Y-126483117D01*
X177053697Y-126484222D01*
X177032048Y-126487576D01*
X177010625Y-126493242D01*
X176989658Y-126501278D01*
X176969378Y-126511745D01*
X176950013Y-126524703D01*
X176931792Y-126540213D01*
X176914946Y-126558336D01*
X176899703Y-126579131D01*
X176886293Y-126602659D01*
X176878485Y-126619893D01*
X176517983Y-127485978D01*
X176157480Y-126622824D01*
X176145420Y-126597255D01*
X176131373Y-126574378D01*
X176115571Y-126554154D01*
X176098241Y-126536545D01*
X176079613Y-126521512D01*
X176059917Y-126509016D01*
X176039383Y-126499019D01*
X176018239Y-126491482D01*
X175996715Y-126486367D01*
X175975040Y-126483634D01*
X175960620Y-126483117D01*
X175934229Y-126484718D01*
X175908032Y-126489421D01*
X175882362Y-126497079D01*
X175857550Y-126507541D01*
X175833929Y-126520660D01*
X175811831Y-126536285D01*
X175791587Y-126554270D01*
X175773530Y-126574464D01*
X175757992Y-126596718D01*
X175745305Y-126620885D01*
X175735801Y-126646815D01*
X175729811Y-126674359D01*
X175727668Y-126703368D01*
X175729704Y-126733695D01*
X175736251Y-126765189D01*
X175747641Y-126797702D01*
G37*
G36*
X177401165Y-127948574D02*
G01*
X177395844Y-127972037D01*
X177393062Y-127996074D01*
X177392802Y-128020402D01*
X177395051Y-128044737D01*
X177399793Y-128068794D01*
X177407012Y-128092289D01*
X177416695Y-128114938D01*
X177428825Y-128136458D01*
X177443389Y-128156563D01*
X177460370Y-128174971D01*
X177479754Y-128191396D01*
X177501526Y-128205555D01*
X177525670Y-128217165D01*
X177552173Y-128225939D01*
X177581018Y-128231596D01*
X177612190Y-128233850D01*
X177618052Y-128233850D01*
X178696140Y-128233850D01*
X178722715Y-128232588D01*
X178747574Y-128228912D01*
X178770720Y-128222982D01*
X178792151Y-128214959D01*
X178811867Y-128205004D01*
X178829869Y-128193278D01*
X178846156Y-128179941D01*
X178860729Y-128165156D01*
X178873588Y-128149083D01*
X178884732Y-128131883D01*
X178894162Y-128113717D01*
X178901877Y-128094746D01*
X178907877Y-128075130D01*
X178912163Y-128055032D01*
X178914735Y-128034612D01*
X178915592Y-128014031D01*
X178914735Y-127993450D01*
X178912163Y-127973030D01*
X178907877Y-127952931D01*
X178901877Y-127933316D01*
X178894162Y-127914345D01*
X178884732Y-127896179D01*
X178873588Y-127878979D01*
X178860729Y-127862906D01*
X178846156Y-127848121D01*
X178829869Y-127834784D01*
X178811867Y-127823058D01*
X178792151Y-127813103D01*
X178770720Y-127805080D01*
X178747574Y-127799150D01*
X178722715Y-127795474D01*
X178696140Y-127794212D01*
X178487068Y-127794212D01*
X178502986Y-127780701D01*
X178518756Y-127766731D01*
X178534357Y-127752309D01*
X178549763Y-127737439D01*
X178564953Y-127722128D01*
X178579902Y-127706382D01*
X178594587Y-127690204D01*
X178608984Y-127673602D01*
X178623069Y-127656581D01*
X178636820Y-127639146D01*
X178650213Y-127621302D01*
X178663224Y-127603056D01*
X178675829Y-127584413D01*
X178688006Y-127565378D01*
X178699730Y-127545957D01*
X178710978Y-127526156D01*
X178721727Y-127505980D01*
X178731952Y-127485434D01*
X178741632Y-127464524D01*
X178750741Y-127443256D01*
X178759257Y-127421636D01*
X178767155Y-127399668D01*
X178774413Y-127377358D01*
X178781007Y-127354713D01*
X178786913Y-127331736D01*
X178792108Y-127308435D01*
X178796569Y-127284814D01*
X178800271Y-127260879D01*
X178803191Y-127236636D01*
X178805306Y-127212090D01*
X178806592Y-127187247D01*
X178807026Y-127162112D01*
X178806209Y-127126473D01*
X178803776Y-127091565D01*
X178799760Y-127057413D01*
X178794190Y-127024044D01*
X178787099Y-126991485D01*
X178778517Y-126959761D01*
X178768474Y-126928899D01*
X178757003Y-126898925D01*
X178744133Y-126869866D01*
X178729896Y-126841747D01*
X178714322Y-126814596D01*
X178697444Y-126788438D01*
X178679290Y-126763299D01*
X178659894Y-126739207D01*
X178639285Y-126716186D01*
X178617494Y-126694265D01*
X178594553Y-126673468D01*
X178570492Y-126653822D01*
X178545342Y-126635354D01*
X178519135Y-126618090D01*
X178491901Y-126602055D01*
X178463670Y-126587277D01*
X178434475Y-126573782D01*
X178404346Y-126561595D01*
X178373314Y-126550744D01*
X178341410Y-126541254D01*
X178308665Y-126533152D01*
X178275109Y-126526464D01*
X178240775Y-126521217D01*
X178205692Y-126517436D01*
X178169891Y-126515148D01*
X178133405Y-126514380D01*
X178096095Y-126515223D01*
X178059477Y-126517731D01*
X178023581Y-126521870D01*
X177988441Y-126527607D01*
X177954089Y-126534910D01*
X177920556Y-126543746D01*
X177887877Y-126554082D01*
X177856082Y-126565885D01*
X177825205Y-126579121D01*
X177795277Y-126593759D01*
X177766332Y-126609765D01*
X177738401Y-126627106D01*
X177711517Y-126645749D01*
X177685712Y-126665662D01*
X177661019Y-126686811D01*
X177637470Y-126709164D01*
X177615097Y-126732687D01*
X177593933Y-126757348D01*
X177574010Y-126783114D01*
X177555360Y-126809952D01*
X177538017Y-126837829D01*
X177522011Y-126866712D01*
X177507377Y-126896568D01*
X177494145Y-126927364D01*
X177482349Y-126959068D01*
X177472020Y-126991646D01*
X177463192Y-127025065D01*
X177455896Y-127059293D01*
X177450165Y-127094297D01*
X177446032Y-127130044D01*
X177443528Y-127166500D01*
X177442686Y-127203633D01*
X177444001Y-127229655D01*
X177447829Y-127254045D01*
X177453991Y-127276797D01*
X177462309Y-127297903D01*
X177472605Y-127317358D01*
X177484700Y-127335155D01*
X177498417Y-127351288D01*
X177513577Y-127365749D01*
X177530003Y-127378534D01*
X177547515Y-127389635D01*
X177565936Y-127399045D01*
X177585087Y-127406759D01*
X177604791Y-127412770D01*
X177624869Y-127417072D01*
X177645143Y-127419658D01*
X177665435Y-127420521D01*
X177685733Y-127419663D01*
X177706023Y-127417092D01*
X177726125Y-127412812D01*
X177745860Y-127406828D01*
X177765048Y-127399144D01*
X177783511Y-127389763D01*
X177801067Y-127378692D01*
X177817538Y-127365933D01*
X177832743Y-127351490D01*
X177846504Y-127335370D01*
X177858641Y-127317575D01*
X177868974Y-127298109D01*
X177877323Y-127276978D01*
X177883509Y-127254186D01*
X177887352Y-127229736D01*
X177888673Y-127203633D01*
X177889678Y-127174162D01*
X177892678Y-127146401D01*
X177897654Y-127120376D01*
X177904587Y-127096113D01*
X177913458Y-127073639D01*
X177924248Y-127052980D01*
X177936937Y-127034163D01*
X177951505Y-127017215D01*
X177967934Y-127002161D01*
X177986204Y-126989029D01*
X178006295Y-126977844D01*
X178028189Y-126968633D01*
X178051867Y-126961424D01*
X178077308Y-126956241D01*
X178104494Y-126953112D01*
X178133405Y-126952063D01*
X178163251Y-126953000D01*
X178190730Y-126955779D01*
X178215904Y-126960355D01*
X178238834Y-126966679D01*
X178259579Y-126974707D01*
X178278202Y-126984392D01*
X178294762Y-126995686D01*
X178315869Y-127015545D01*
X178332677Y-127038764D01*
X178345393Y-127065188D01*
X178351699Y-127084506D01*
X178356337Y-127105132D01*
X178359369Y-127127019D01*
X178360856Y-127150120D01*
X178361039Y-127162112D01*
X178359446Y-127191636D01*
X178354770Y-127220667D01*
X178347166Y-127249191D01*
X178336787Y-127277195D01*
X178323787Y-127304667D01*
X178308321Y-127331592D01*
X178290544Y-127357959D01*
X178270608Y-127383755D01*
X178248669Y-127408965D01*
X178224881Y-127433579D01*
X178199397Y-127457581D01*
X178172373Y-127480960D01*
X178143962Y-127503703D01*
X178114318Y-127525796D01*
X178083596Y-127547227D01*
X178051950Y-127567982D01*
X178019534Y-127588049D01*
X177986502Y-127607415D01*
X177953008Y-127626067D01*
X177919208Y-127643991D01*
X177885254Y-127661174D01*
X177851301Y-127677605D01*
X177817503Y-127693270D01*
X177784015Y-127708155D01*
X177750991Y-127722248D01*
X177718584Y-127735536D01*
X177686950Y-127748006D01*
X177656242Y-127759645D01*
X177626614Y-127770440D01*
X177598221Y-127780378D01*
X177571217Y-127789447D01*
X177545756Y-127797632D01*
X177523351Y-127806098D01*
X177502832Y-127816264D01*
X177484180Y-127827948D01*
X177467377Y-127840969D01*
X177452403Y-127855146D01*
X177439239Y-127870297D01*
X177427865Y-127886243D01*
X177415451Y-127908425D01*
X177406140Y-127931268D01*
X177401165Y-127948574D01*
G37*
D11*
G04 #@! TO.C,Q3*
X186734356Y-108814195D03*
X185390853Y-110157698D03*
X187388430Y-110811772D03*
G04 #@! TD*
D12*
G04 #@! TO.C,D3*
X158759158Y-106914131D03*
X158759158Y-106224131D03*
X159449158Y-106224131D03*
X159449158Y-106914131D03*
G04 #@! TD*
D13*
G04 #@! TO.C,R4*
X151202240Y-108566709D03*
X150035514Y-107399983D03*
G04 #@! TD*
D14*
G04 #@! TO.C,J5*
X203589438Y-94263849D03*
D15*
X203589438Y-96803849D03*
X203589438Y-99343849D03*
X203589438Y-101883849D03*
G04 #@! TD*
D16*
G04 #@! TO.C,R11*
X189615816Y-91755244D03*
X188449090Y-92921970D03*
G04 #@! TD*
D13*
G04 #@! TO.C,R6*
X158273308Y-115637775D03*
X157106582Y-114471049D03*
G04 #@! TD*
G04 #@! TO.C,R28*
X161685098Y-92179508D03*
X160518372Y-91012782D03*
G04 #@! TD*
D17*
G04 #@! TO.C,H1*
X167589441Y-98083850D03*
G04 #@! TD*
D18*
G04 #@! TO.C,R17*
X154702420Y-109804145D03*
X155869146Y-110970871D03*
G04 #@! TD*
D19*
G04 #@! TO.C,U2*
X190735886Y-62563033D03*
X189837860Y-63461058D03*
X188939834Y-64359084D03*
X188041809Y-65257110D03*
X187143783Y-66155135D03*
X186245758Y-67053161D03*
X185347732Y-67951186D03*
X184449706Y-68849212D03*
X183551681Y-69747238D03*
X182653655Y-70645263D03*
X181755629Y-71543289D03*
X180857604Y-72441314D03*
X179959578Y-73339340D03*
X179061553Y-74237366D03*
D20*
X180327274Y-77270854D03*
X181225299Y-78168879D03*
X182123325Y-79066905D03*
X183021351Y-79964931D03*
X183919376Y-80862956D03*
X184817402Y-81760982D03*
X185715427Y-82659007D03*
X186613453Y-83557033D03*
X187511479Y-84455059D03*
X188409504Y-85353084D03*
D19*
X191435921Y-86611734D03*
X192333947Y-85713709D03*
X193231973Y-84815683D03*
X194129998Y-83917658D03*
X195028024Y-83019632D03*
X195926049Y-82121606D03*
X196824075Y-81223581D03*
X197722101Y-80325555D03*
X198620126Y-79427529D03*
X199518152Y-78529504D03*
X200416177Y-77631478D03*
X201314203Y-76733453D03*
X202212229Y-75835427D03*
X203110254Y-74937401D03*
D21*
X190712906Y-71842042D03*
X189634568Y-72920380D03*
X191791243Y-71842042D03*
X190712906Y-72920380D03*
X189634568Y-73998718D03*
X191791243Y-72920380D03*
D22*
X191252074Y-73459548D03*
D21*
X190712906Y-73998718D03*
X192869581Y-72920380D03*
X191791243Y-73998718D03*
X190712906Y-75077056D03*
X192869581Y-73998718D03*
X191791243Y-75077056D03*
G04 #@! TD*
D16*
G04 #@! TO.C,R25*
X161808843Y-103864448D03*
X160642117Y-105031174D03*
G04 #@! TD*
G04 #@! TO.C,R20*
X155869146Y-85196829D03*
X154702420Y-86363555D03*
G04 #@! TD*
D23*
G04 #@! TO.C,J3*
X139449770Y-115447209D03*
D24*
X143041874Y-119039313D03*
X146633976Y-122631415D03*
X150226079Y-126223518D03*
G04 #@! TD*
D16*
G04 #@! TO.C,R26*
X160394628Y-102450233D03*
X159227902Y-103616959D03*
G04 #@! TD*
D13*
G04 #@! TO.C,R5*
X154737774Y-112102241D03*
X153571048Y-110935515D03*
G04 #@! TD*
D25*
G04 #@! TO.C,J2*
X184952799Y-126223517D03*
D24*
X188544903Y-122631415D03*
X192137005Y-119039313D03*
X195729108Y-115447210D03*
G04 #@! TD*
D26*
G04 #@! TO.C,SW2*
X180741625Y-92002731D03*
X185549951Y-87194405D03*
X183570053Y-94831159D03*
X188378379Y-90022833D03*
G04 #@! TD*
D18*
G04 #@! TO.C,R16*
X151166886Y-106268611D03*
X152333612Y-107435337D03*
G04 #@! TD*
D11*
G04 #@! TO.C,Q1*
X179663288Y-115885263D03*
X178319785Y-117228766D03*
X180317362Y-117882840D03*
G04 #@! TD*
D27*
G04 #@! TO.C,R9*
X150035514Y-88767718D03*
X151202240Y-87600992D03*
G04 #@! TD*
D28*
G04 #@! TO.C,J1*
X165129440Y-70881349D03*
D24*
X160049441Y-70881350D03*
G04 #@! TD*
D29*
G04 #@! TO.C,Q4*
X149788028Y-110157698D03*
X148444525Y-108814195D03*
X147790451Y-110811772D03*
G04 #@! TD*
D30*
G04 #@! TO.C,SW1*
X178478884Y-80123338D03*
X173670558Y-84931664D03*
X175650456Y-77294910D03*
X170842130Y-82103236D03*
G04 #@! TD*
D27*
G04 #@! TO.C,R13*
X175774201Y-114506406D03*
X176940927Y-113339680D03*
G04 #@! TD*
D12*
G04 #@! TO.C,D4*
X158759158Y-89253568D03*
X159449158Y-89253568D03*
X159449158Y-89943568D03*
X158759158Y-89943568D03*
G04 #@! TD*
D16*
G04 #@! TO.C,R19*
X159404680Y-81661295D03*
X158237954Y-82828021D03*
G04 #@! TD*
G04 #@! TO.C,R3*
X185143365Y-107399982D03*
X183976639Y-108566708D03*
G04 #@! TD*
G04 #@! TO.C,R27*
X163223056Y-105278662D03*
X162056330Y-106445388D03*
G04 #@! TD*
D18*
G04 #@! TO.C,R23*
X171955825Y-105278662D03*
X173122551Y-106445388D03*
G04 #@! TD*
D31*
G04 #@! TO.C,H2*
X167589441Y-121083850D03*
G04 #@! TD*
D27*
G04 #@! TO.C,R8*
X153571048Y-85232184D03*
X154737774Y-84065458D03*
G04 #@! TD*
D32*
G04 #@! TO.C,C1*
X172614441Y-69583851D03*
X175564441Y-69583851D03*
G04 #@! TD*
D27*
G04 #@! TO.C,R14*
X179309736Y-110970871D03*
X180476462Y-109804145D03*
G04 #@! TD*
D18*
G04 #@! TO.C,R24*
X174784252Y-102450235D03*
X175950978Y-103616961D03*
G04 #@! TD*
D27*
G04 #@! TO.C,R7*
X157106582Y-81696650D03*
X158273308Y-80529924D03*
G04 #@! TD*
D13*
G04 #@! TO.C,R12*
X177789455Y-89050560D03*
X176622729Y-87883834D03*
G04 #@! TD*
D33*
G04 #@! TO.C,Q7*
X155515592Y-80282437D03*
X156859095Y-78938934D03*
X154861518Y-78284860D03*
G04 #@! TD*
D34*
G04 #@! TO.C,U1*
X169789439Y-62303849D03*
D35*
X176089439Y-64583849D03*
D34*
X169789439Y-66863849D03*
G04 #@! TD*
D13*
G04 #@! TO.C,R29*
X163099311Y-90765295D03*
X161932585Y-89598569D03*
G04 #@! TD*
D29*
G04 #@! TO.C,Q6*
X156859095Y-117228765D03*
X155515592Y-115885262D03*
X154861518Y-117882839D03*
G04 #@! TD*
D33*
G04 #@! TO.C,Q9*
X148444524Y-87353505D03*
X149788027Y-86010002D03*
X147790450Y-85355928D03*
G04 #@! TD*
D13*
G04 #@! TO.C,R30*
X160270885Y-93593721D03*
X159104159Y-92426995D03*
G04 #@! TD*
D18*
G04 #@! TO.C,R18*
X158237954Y-113339680D03*
X159404680Y-114506406D03*
G04 #@! TD*
D27*
G04 #@! TO.C,R15*
X182845268Y-107435337D03*
X184011994Y-106268611D03*
G04 #@! TD*
D33*
G04 #@! TO.C,Q8*
X151980058Y-83817971D03*
X153323561Y-82474468D03*
X151325984Y-81820394D03*
G04 #@! TD*
D12*
G04 #@! TO.C,D2*
X176419722Y-106914131D03*
X175729722Y-106914131D03*
X175729722Y-106224131D03*
X176419722Y-106224131D03*
G04 #@! TD*
D16*
G04 #@! TO.C,R2*
X181607832Y-110935515D03*
X180441106Y-112102241D03*
G04 #@! TD*
D36*
G04 #@! TO.C,J4*
X150226079Y-69944180D03*
D24*
X146633977Y-73536284D03*
X143041875Y-77128386D03*
X139449772Y-80720489D03*
G04 #@! TD*
D16*
G04 #@! TO.C,R10*
X173900368Y-76075151D03*
X172733642Y-77241877D03*
G04 #@! TD*
G04 #@! TO.C,R1*
X178072298Y-114471049D03*
X176905572Y-115637775D03*
G04 #@! TD*
D18*
G04 #@! TO.C,R22*
X173370037Y-103864448D03*
X174536763Y-105031174D03*
G04 #@! TD*
D16*
G04 #@! TO.C,R21*
X152333611Y-88732364D03*
X151166885Y-89899090D03*
G04 #@! TD*
D11*
G04 #@! TO.C,Q2*
X183198822Y-112349729D03*
X181855319Y-113693232D03*
X183852896Y-114347306D03*
G04 #@! TD*
D37*
G04 #@! TO.C,D1*
X176631569Y-90155416D03*
X175517875Y-89041722D03*
G04 #@! TD*
D29*
G04 #@! TO.C,Q5*
X153323561Y-113693231D03*
X151980058Y-112349728D03*
X151325984Y-114347305D03*
G04 #@! TD*
D38*
G04 #@! TO.C,C2*
X186336959Y-61738562D03*
X188236959Y-61738562D03*
G04 #@! TD*
M02*
